<svg width="205" height="27" viewBox="0 0 205 27" fill="none" xmlns="http://www.w3.org/2000/svg">
<path fill-rule="evenodd" clip-rule="evenodd" d="M107.816 9.81817C107.729 8.94374 107.343 8.24829 106.658 7.73181C105.972 7.21533 105.111 6.95709 104.073 6.95709C103.341 6.95709 102.697 7.08238 102.14 7.33295C101.587 7.58351 101.153 7.93124 100.836 8.37613C100.524 8.8159 100.368 9.31704 100.368 9.87954C100.368 10.2937 100.457 10.6568 100.636 10.9687C100.815 11.2807 101.056 11.5491 101.357 11.7741C101.664 11.994 102.002 12.1832 102.37 12.3418C102.743 12.5003 103.119 12.6332 103.497 12.7406L105.154 13.2162C105.655 13.3543 106.156 13.5307 106.658 13.7454C107.159 13.9602 107.616 14.2312 108.031 14.5585C108.45 14.8807 108.785 15.277 109.035 15.7474C109.291 16.2128 109.419 16.7727 109.419 17.4273C109.419 18.2659 109.202 19.0202 108.767 19.69C108.332 20.3599 107.708 20.8918 106.895 21.2855C106.082 21.6741 105.108 21.8685 103.973 21.8685C102.904 21.8685 101.976 21.692 101.188 21.3392C100.401 20.9812 99.7822 20.4878 99.3322 19.8588C98.8822 19.2298 98.6291 18.5011 98.5728 17.6727H100.046C100.097 18.2915 100.301 18.8156 100.659 19.2452C101.017 19.6747 101.483 20.002 102.055 20.227C102.628 20.4469 103.267 20.5568 103.973 20.5568C104.755 20.5568 105.451 20.4264 106.059 20.1656C106.673 19.8997 107.154 19.5315 107.501 19.0611C107.854 18.5855 108.031 18.0332 108.031 17.4043C108.031 16.8724 107.892 16.4275 107.616 16.0696C107.34 15.7065 106.954 15.4023 106.458 15.1568C105.967 14.9114 105.397 14.694 104.748 14.5048L102.868 13.9525C101.636 13.5844 100.68 13.0756 99.9996 12.4261C99.3194 11.7767 98.9794 10.9483 98.9794 9.9409C98.9794 9.09715 99.2044 8.35567 99.6544 7.71647C100.109 7.07215 100.723 6.57101 101.495 6.21306C102.273 5.84999 103.144 5.66846 104.111 5.66846C105.088 5.66846 105.952 5.84743 106.704 6.20539C107.455 6.56334 108.051 7.05681 108.491 7.68579C108.936 8.30965 109.173 9.02045 109.204 9.81817H107.816ZM117.189 21.8454C116.136 21.8454 115.218 21.5821 114.435 21.0554C113.658 20.5287 113.055 19.8077 112.625 18.8923C112.196 17.977 111.981 16.9338 111.981 15.7628C111.981 14.5815 112.198 13.5307 112.633 12.6102C113.073 11.6898 113.681 10.9687 114.458 10.4472C115.236 9.92045 116.138 9.65709 117.166 9.65709C117.954 9.65709 118.667 9.8105 119.306 10.1173C119.945 10.419 120.472 10.846 120.886 11.3983C121.306 11.9454 121.569 12.5847 121.676 13.3159H120.296C120.152 12.6511 119.807 12.0835 119.26 11.6131C118.718 11.1375 118.028 10.8997 117.189 10.8997C116.437 10.8997 115.773 11.1043 115.195 11.5133C114.617 11.9173 114.164 12.4824 113.837 13.2085C113.515 13.9295 113.354 14.7656 113.354 15.7168C113.354 16.673 113.512 17.5193 113.829 18.2557C114.146 18.9869 114.591 19.5597 115.164 19.9739C115.742 20.3881 116.417 20.5952 117.189 20.5952C117.711 20.5952 118.186 20.498 118.616 20.3037C119.05 20.1043 119.413 19.823 119.705 19.4599C120.002 19.0969 120.201 18.6648 120.303 18.1636H121.684C121.582 18.8744 121.329 19.5085 120.925 20.0659C120.526 20.6182 120.007 21.0528 119.367 21.3699C118.733 21.6869 118.007 21.8454 117.189 21.8454ZM125.976 21.6V14.2364C125.976 13.5511 126.116 12.9605 126.397 12.4645C126.684 11.9633 127.072 11.5798 127.563 11.3139C128.054 11.048 128.614 10.915 129.243 10.915C130.158 10.915 130.885 11.1963 131.422 11.7588C131.964 12.3162 132.235 13.0807 132.235 14.0523V21.6H133.608V13.9679C133.608 13.0321 133.439 12.2446 133.101 11.6054C132.764 10.9662 132.293 10.4829 131.69 10.1557C131.087 9.8284 130.386 9.66476 129.588 9.66476C128.699 9.66476 127.962 9.8463 127.379 10.2094C126.801 10.5724 126.374 11.0582 126.098 11.6668H125.976V5.8909H124.61V21.6H125.976ZM141.967 21.8454C140.867 21.8454 139.916 21.5898 139.113 21.0784C138.31 20.5619 137.689 19.8486 137.249 18.9383C136.815 18.023 136.597 16.9696 136.597 15.7781C136.597 14.5918 136.815 13.5383 137.249 12.6179C137.689 11.6923 138.295 10.9687 139.067 10.4472C139.844 9.92045 140.742 9.65709 141.759 9.65709C142.399 9.65709 143.015 9.77471 143.608 10.0099C144.201 10.24 144.733 10.5954 145.203 11.0761C145.679 11.5517 146.055 12.1525 146.331 12.8787C146.607 13.5997 146.745 14.4537 146.745 15.4406V16.1156H137.972C137.99 16.9813 138.151 17.7433 138.453 18.4014C138.781 19.0969 139.244 19.6364 139.842 20.0199C140.44 20.4034 141.148 20.5952 141.967 20.5952C142.524 20.5952 143.012 20.5082 143.432 20.3344C143.856 20.1605 144.211 19.9278 144.498 19.6364C144.789 19.3398 145.009 19.015 145.157 18.6622L146.454 19.0841C146.275 19.5801 145.981 20.0378 145.572 20.4571C145.168 20.8764 144.661 21.2139 144.053 21.4696C143.449 21.7202 142.754 21.8454 141.967 21.8454ZM138.453 13.0781C138.18 13.6434 138.022 14.2545 137.981 14.9114H145.349C145.349 14.1545 145.196 13.4744 144.889 12.871C144.587 12.2625 144.165 11.7818 143.623 11.429C143.086 11.0761 142.465 10.8997 141.759 10.8997C141.013 10.8997 140.356 11.0991 139.788 11.498C139.221 11.8969 138.776 12.4236 138.453 13.0781ZM151.457 21.0784C152.183 21.5898 153.029 21.8454 153.996 21.8454C154.712 21.8454 155.307 21.7176 155.783 21.4619C156.264 21.2062 156.65 20.8918 156.941 20.5185C157.233 20.14 157.458 19.7719 157.616 19.4139H157.777V21.6H159.112V5.8909H157.739V12.0656H157.616C157.458 11.7128 157.235 11.3497 156.949 10.9764C156.662 10.6031 156.282 10.2912 155.806 10.0406C155.33 9.78493 154.735 9.65709 154.019 9.65709C153.047 9.65709 152.196 9.91278 151.464 10.4241C150.733 10.9304 150.163 11.6412 149.754 12.5565C149.35 13.4668 149.148 14.5278 149.148 15.7398C149.148 16.9568 149.35 18.023 149.754 18.9383C150.163 19.8537 150.731 20.567 151.457 21.0784ZM156.105 19.9739C155.568 20.3881 154.919 20.5952 154.157 20.5952C153.374 20.5952 152.712 20.3804 152.17 19.9508C151.633 19.5162 151.224 18.9307 150.943 18.1943C150.662 17.4579 150.521 16.6321 150.521 15.7168C150.521 14.8116 150.659 13.996 150.935 13.2699C151.216 12.5437 151.626 11.9685 152.162 11.544C152.705 11.1145 153.369 10.8997 154.157 10.8997C154.924 10.8997 155.576 11.1068 156.113 11.521C156.65 11.9301 157.059 12.4977 157.34 13.2239C157.621 13.9449 157.762 14.7758 157.762 15.7168C157.762 16.6679 157.619 17.5116 157.332 18.248C157.051 18.9793 156.642 19.5545 156.105 19.9739ZM170.487 17.0974V9.81817H171.853V21.6H170.487V19.644H170.38C170.104 20.2474 169.666 20.7511 169.068 21.1551C168.47 21.554 167.739 21.7534 166.874 21.7534C166.123 21.7534 165.455 21.5898 164.872 21.2625C164.289 20.9301 163.832 20.4443 163.499 19.8051C163.167 19.1659 163.001 18.381 163.001 17.4503V9.81817H164.366V17.3659C164.366 18.2864 164.637 19.0278 165.179 19.5903C165.721 20.1477 166.417 20.4264 167.266 20.4264C167.797 20.4264 168.309 20.2986 168.8 20.0429C169.291 19.7872 169.695 19.4139 170.012 18.923C170.329 18.427 170.487 17.8185 170.487 17.0974ZM176.833 21.6V5.8909H175.467V21.6H176.833ZM185.209 21.8454C184.109 21.8454 183.158 21.5898 182.355 21.0784C181.552 20.5619 180.931 19.8486 180.491 18.9383C180.057 18.023 179.839 16.9696 179.839 15.7781C179.839 14.5918 180.057 13.5383 180.491 12.6179C180.931 11.6923 181.537 10.9687 182.309 10.4472C183.087 9.92045 183.984 9.65709 185.002 9.65709C185.641 9.65709 186.257 9.77471 186.85 10.0099C187.443 10.24 187.975 10.5954 188.446 11.0761C188.921 11.5517 189.297 12.1525 189.573 12.8787C189.849 13.5997 189.987 14.4537 189.987 15.4406V16.1156H181.214C181.232 16.9813 181.393 17.7433 181.696 18.4014C182.023 19.0969 182.486 19.6364 183.084 20.0199C183.682 20.4034 184.391 20.5952 185.209 20.5952C185.766 20.5952 186.254 20.5082 186.674 20.3344C187.098 20.1605 187.454 19.9278 187.74 19.6364C188.031 19.3398 188.251 19.015 188.4 18.6622L189.696 19.0841C189.517 19.5801 189.223 20.0378 188.814 20.4571C188.41 20.8764 187.904 21.2139 187.295 21.4696C186.692 21.7202 185.996 21.8454 185.209 21.8454ZM181.696 13.0781C181.422 13.6434 181.264 14.2545 181.223 14.9114H188.591C188.591 14.1545 188.438 13.4744 188.131 12.871C187.829 12.2625 187.408 11.7818 186.866 11.429C186.329 11.0761 185.707 10.8997 185.002 10.8997C184.255 10.8997 183.598 11.0991 183.03 11.498C182.463 11.8969 182.018 12.4236 181.696 13.0781ZM192.996 9.81817V21.6H194.361V13.9909C194.361 13.4079 194.5 12.8889 194.776 12.4338C195.052 11.9787 195.428 11.6233 195.903 11.3676C196.384 11.1068 196.931 10.9764 197.545 10.9764C197.724 10.9764 197.89 10.9866 198.043 11.0071C198.197 11.0275 198.304 11.0429 198.365 11.0531V9.66476C198.273 9.65965 198.158 9.65454 198.02 9.64942C197.882 9.64431 197.757 9.64175 197.644 9.64175C196.903 9.64175 196.238 9.82584 195.65 10.194C195.067 10.5571 194.658 11.0352 194.423 11.6284H194.323V9.81817H192.996ZM33.7654 21.5999V5.89082H39.9631C41.1495 5.89082 42.162 6.10304 43.0006 6.52747C43.8444 6.94679 44.4861 7.54252 44.9259 8.31468C45.3708 9.08173 45.5932 9.98429 45.5932 11.0224C45.5932 12.0655 45.3682 12.963 44.9182 13.7147C44.4682 14.4613 43.8162 15.034 42.9623 15.4329C42.9154 15.4549 42.8681 15.4763 42.8202 15.497L46.1532 21.5999H42.4867L39.5111 16.0312H37.0867V21.5999H33.7654ZM39.3418 13.3618H37.0867V8.60616H39.3265C39.9657 8.60616 40.4949 8.70076 40.9142 8.88997C41.3387 9.07406 41.6532 9.34508 41.8577 9.70304C42.0674 10.061 42.1722 10.5008 42.1722 11.0224C42.1722 11.5388 42.0674 11.9709 41.8577 12.3187C41.6532 12.6664 41.3412 12.9272 40.9219 13.101C40.5026 13.2749 39.9759 13.3618 39.3418 13.3618ZM53.0585 21.83C51.8466 21.83 50.8034 21.5846 49.9289 21.0937C49.0596 20.5976 48.3897 19.8971 47.9193 18.992C47.4488 18.0817 47.2136 17.0053 47.2136 15.7627C47.2136 14.5508 47.4488 13.4871 47.9193 12.5718C48.3897 11.6564 49.052 10.9431 49.9059 10.4317C50.765 9.92037 51.7724 9.66468 52.9281 9.66468C53.7054 9.66468 54.4289 9.78997 55.0988 10.0405C55.7738 10.286 56.3619 10.6567 56.863 11.1528C57.3693 11.6488 57.763 12.2726 58.0443 13.0243C58.3255 13.7709 58.4662 14.6454 58.4662 15.6476V16.5451H50.4429V16.5528C50.4429 17.1357 50.5503 17.6394 50.765 18.0638C50.9849 18.4883 51.2943 18.8155 51.6931 19.0456C52.092 19.2758 52.565 19.3908 53.1122 19.3908C53.4753 19.3908 53.8076 19.3397 54.1093 19.2374C54.411 19.1351 54.6693 18.9817 54.8841 18.7772C55.0988 18.5726 55.2625 18.3221 55.375 18.0255L58.3971 18.2249C58.2437 18.951 57.9292 19.5851 57.4537 20.1272C56.9832 20.6641 56.3747 21.0834 55.6281 21.3851C54.8866 21.6817 54.0301 21.83 53.0585 21.83ZM50.7727 13.3618C50.5746 13.7109 50.4656 14.097 50.4459 14.5201H55.3903C55.3903 14.0496 55.288 13.6329 55.0835 13.2698C54.8789 12.9067 54.5951 12.6229 54.2321 12.4184C53.8741 12.2087 53.4574 12.1039 52.9818 12.1039C52.4858 12.1039 52.046 12.2189 51.6625 12.4491C51.2841 12.6741 50.9875 12.9783 50.7727 13.3618ZM61.9485 21.4312C62.5366 21.692 63.2065 21.8224 63.9582 21.8224C64.5412 21.8224 65.0551 21.7456 65.5 21.5922C65.9449 21.4337 66.3258 21.2164 66.6429 20.9403C66.9599 20.659 67.213 20.3343 67.4022 19.9661H67.4943V21.5999H70.5932V13.6533C70.5932 12.9528 70.4576 12.3519 70.1866 11.8508C69.9156 11.3445 69.5449 10.9303 69.0744 10.6081C68.6091 10.286 68.0747 10.0482 67.4713 9.8948C66.873 9.74139 66.2466 9.66468 65.592 9.66468C64.6511 9.66468 63.8227 9.80787 63.1068 10.0942C62.396 10.3755 61.8156 10.7795 61.3656 11.3062C60.9156 11.8278 60.6139 12.4465 60.4605 13.1624L63.4826 13.4079C63.5951 13.0192 63.8253 12.6971 64.173 12.4414C64.5207 12.1806 64.9886 12.0502 65.5767 12.0502C66.1341 12.0502 66.5636 12.1831 66.8653 12.4491C67.1721 12.715 67.3255 13.0908 67.3255 13.5766V13.6226C67.3255 13.8732 67.2309 14.0624 67.0417 14.1903C66.8525 14.3181 66.5483 14.4153 66.1289 14.4817C65.7096 14.5431 65.1574 14.6096 64.4721 14.6812C63.8892 14.7374 63.3318 14.8346 62.8 14.9726C62.2733 15.1107 61.8028 15.3153 61.3886 15.5863C60.9744 15.8573 60.6471 16.2153 60.4068 16.6601C60.1664 17.105 60.0463 17.6547 60.0463 18.3093C60.0463 19.0866 60.215 19.736 60.5525 20.2576C60.8951 20.7741 61.3605 21.1653 61.9485 21.4312ZM66.1673 19.2834C65.7991 19.4726 65.3747 19.5672 64.894 19.5672C64.3929 19.5672 63.9787 19.4522 63.6514 19.2221C63.3292 18.9868 63.1681 18.6468 63.1681 18.2019C63.1681 17.8951 63.2474 17.6394 63.4059 17.4349C63.5645 17.2252 63.7869 17.059 64.0733 16.9363C64.3596 16.8135 64.6946 16.7241 65.0781 16.6678C65.2571 16.6422 65.4565 16.6141 65.6764 16.5834C65.8963 16.5476 66.1162 16.5093 66.336 16.4684C66.5559 16.4224 66.7528 16.3738 66.9267 16.3226C67.1056 16.2664 67.2463 16.205 67.3485 16.1385V17.3888C67.3485 17.803 67.2437 18.1738 67.0341 18.501C66.8244 18.8283 66.5355 19.0891 66.1673 19.2834ZM78.4515 21.83C77.2447 21.83 76.2066 21.5743 75.3373 21.063C74.4731 20.5465 73.8083 19.8306 73.343 18.9153C72.8828 17.9999 72.6527 16.9465 72.6527 15.755C72.6527 14.5482 72.8853 13.4897 73.3507 12.5795C73.8211 11.6641 74.4885 10.9508 75.3527 10.4394C76.2169 9.92292 77.2447 9.66468 78.4362 9.66468C79.464 9.66468 80.364 9.85133 81.1362 10.2246C81.9083 10.5979 82.5194 11.1221 82.9694 11.7971C83.4194 12.4721 83.6674 13.2647 83.7135 14.1749H80.6299C80.543 13.5868 80.3129 13.1138 79.9396 12.7559C79.5714 12.3928 79.0882 12.2113 78.4899 12.2113C77.9836 12.2113 77.5413 12.3493 77.1629 12.6255C76.7896 12.8965 76.4981 13.2928 76.2885 13.8144C76.0788 14.336 75.974 14.9675 75.974 15.709C75.974 16.4607 76.0762 17.0999 76.2808 17.6266C76.4905 18.1533 76.7845 18.5547 77.1629 18.8309C77.5413 19.107 77.9836 19.2451 78.4899 19.2451C78.8632 19.2451 79.1981 19.1684 79.4947 19.015C79.7964 18.8616 80.0444 18.6391 80.2387 18.3476C80.4382 18.051 80.5686 17.6956 80.6299 17.2814H83.7135C83.6623 18.1814 83.4169 18.9741 82.9771 19.6593C82.5424 20.3394 81.9416 20.8712 81.1745 21.2547C80.4075 21.6383 79.4998 21.83 78.4515 21.83ZM92.0723 12.2726V9.81809H89.8556V6.99537H86.588V9.81809H84.9772V12.2726H86.588V18.409C86.5828 19.1812 86.7439 19.8204 87.0712 20.3266C87.3985 20.8329 87.8561 21.2062 88.4442 21.4465C89.0374 21.6868 89.7277 21.7917 90.5152 21.761C90.9397 21.7456 91.3002 21.7022 91.5968 21.6306C91.8934 21.5641 92.1235 21.5053 92.2871 21.4542L91.7732 19.0226C91.6914 19.038 91.5738 19.061 91.4203 19.0917C91.2669 19.1172 91.1135 19.13 90.9601 19.13C90.7402 19.13 90.5459 19.0968 90.3772 19.0303C90.2135 18.9638 90.0857 18.8488 89.9936 18.6851C89.9016 18.5164 89.8556 18.2812 89.8556 17.9795V12.2726H92.0723Z" fill="white" fill-opacity="0.5"/>
<path fill-rule="evenodd" clip-rule="evenodd" d="M107.816 9.81817C107.729 8.94374 107.343 8.24829 106.658 7.73181C105.972 7.21533 105.111 6.95709 104.073 6.95709C103.341 6.95709 102.697 7.08238 102.14 7.33295C101.587 7.58351 101.153 7.93124 100.836 8.37613C100.524 8.8159 100.368 9.31704 100.368 9.87954C100.368 10.2937 100.457 10.6568 100.636 10.9687C100.815 11.2807 101.056 11.5491 101.357 11.7741C101.664 11.994 102.002 12.1832 102.37 12.3418C102.743 12.5003 103.119 12.6332 103.497 12.7406L105.154 13.2162C105.655 13.3543 106.156 13.5307 106.658 13.7454C107.159 13.9602 107.616 14.2312 108.031 14.5585C108.45 14.8807 108.785 15.277 109.035 15.7474C109.291 16.2128 109.419 16.7727 109.419 17.4273C109.419 18.2659 109.202 19.0202 108.767 19.69C108.332 20.3599 107.708 20.8918 106.895 21.2855C106.082 21.6741 105.108 21.8685 103.973 21.8685C102.904 21.8685 101.976 21.692 101.188 21.3392C100.401 20.9812 99.7822 20.4878 99.3322 19.8588C98.8822 19.2298 98.6291 18.5011 98.5728 17.6727H100.046C100.097 18.2915 100.301 18.8156 100.659 19.2452C101.017 19.6747 101.483 20.002 102.055 20.227C102.628 20.4469 103.267 20.5568 103.973 20.5568C104.755 20.5568 105.451 20.4264 106.059 20.1656C106.673 19.8997 107.154 19.5315 107.501 19.0611C107.854 18.5855 108.031 18.0332 108.031 17.4043C108.031 16.8724 107.892 16.4275 107.616 16.0696C107.34 15.7065 106.954 15.4023 106.458 15.1568C105.967 14.9114 105.397 14.694 104.748 14.5048L102.868 13.9525C101.636 13.5844 100.68 13.0756 99.9996 12.4261C99.3194 11.7767 98.9794 10.9483 98.9794 9.9409C98.9794 9.09715 99.2044 8.35567 99.6544 7.71647C100.109 7.07215 100.723 6.57101 101.495 6.21306C102.273 5.84999 103.144 5.66846 104.111 5.66846C105.088 5.66846 105.952 5.84743 106.704 6.20539C107.455 6.56334 108.051 7.05681 108.491 7.68579C108.936 8.30965 109.173 9.02045 109.204 9.81817H107.816ZM117.189 21.8454C116.136 21.8454 115.218 21.5821 114.435 21.0554C113.658 20.5287 113.055 19.8077 112.625 18.8923C112.196 17.977 111.981 16.9338 111.981 15.7628C111.981 14.5815 112.198 13.5307 112.633 12.6102C113.073 11.6898 113.681 10.9687 114.458 10.4472C115.236 9.92045 116.138 9.65709 117.166 9.65709C117.954 9.65709 118.667 9.8105 119.306 10.1173C119.945 10.419 120.472 10.846 120.886 11.3983C121.306 11.9454 121.569 12.5847 121.676 13.3159H120.296C120.152 12.6511 119.807 12.0835 119.26 11.6131C118.718 11.1375 118.028 10.8997 117.189 10.8997C116.437 10.8997 115.773 11.1043 115.195 11.5133C114.617 11.9173 114.164 12.4824 113.837 13.2085C113.515 13.9295 113.354 14.7656 113.354 15.7168C113.354 16.673 113.512 17.5193 113.829 18.2557C114.146 18.9869 114.591 19.5597 115.164 19.9739C115.742 20.3881 116.417 20.5952 117.189 20.5952C117.711 20.5952 118.186 20.498 118.616 20.3037C119.05 20.1043 119.413 19.823 119.705 19.4599C120.002 19.0969 120.201 18.6648 120.303 18.1636H121.684C121.582 18.8744 121.329 19.5085 120.925 20.0659C120.526 20.6182 120.007 21.0528 119.367 21.3699C118.733 21.6869 118.007 21.8454 117.189 21.8454ZM125.976 21.6V14.2364C125.976 13.5511 126.116 12.9605 126.397 12.4645C126.684 11.9633 127.072 11.5798 127.563 11.3139C128.054 11.048 128.614 10.915 129.243 10.915C130.158 10.915 130.885 11.1963 131.422 11.7588C131.964 12.3162 132.235 13.0807 132.235 14.0523V21.6H133.608V13.9679C133.608 13.0321 133.439 12.2446 133.101 11.6054C132.764 10.9662 132.293 10.4829 131.69 10.1557C131.087 9.8284 130.386 9.66476 129.588 9.66476C128.699 9.66476 127.962 9.8463 127.379 10.2094C126.801 10.5724 126.374 11.0582 126.098 11.6668H125.976V5.8909H124.61V21.6H125.976ZM141.967 21.8454C140.867 21.8454 139.916 21.5898 139.113 21.0784C138.31 20.5619 137.689 19.8486 137.249 18.9383C136.815 18.023 136.597 16.9696 136.597 15.7781C136.597 14.5918 136.815 13.5383 137.249 12.6179C137.689 11.6923 138.295 10.9687 139.067 10.4472C139.844 9.92045 140.742 9.65709 141.759 9.65709C142.399 9.65709 143.015 9.77471 143.608 10.0099C144.201 10.24 144.733 10.5954 145.203 11.0761C145.679 11.5517 146.055 12.1525 146.331 12.8787C146.607 13.5997 146.745 14.4537 146.745 15.4406V16.1156H137.972C137.99 16.9813 138.151 17.7433 138.453 18.4014C138.781 19.0969 139.244 19.6364 139.842 20.0199C140.44 20.4034 141.148 20.5952 141.967 20.5952C142.524 20.5952 143.012 20.5082 143.432 20.3344C143.856 20.1605 144.211 19.9278 144.498 19.6364C144.789 19.3398 145.009 19.015 145.157 18.6622L146.454 19.0841C146.275 19.5801 145.981 20.0378 145.572 20.4571C145.168 20.8764 144.661 21.2139 144.053 21.4696C143.449 21.7202 142.754 21.8454 141.967 21.8454ZM138.453 13.0781C138.18 13.6434 138.022 14.2545 137.981 14.9114H145.349C145.349 14.1545 145.196 13.4744 144.889 12.871C144.587 12.2625 144.165 11.7818 143.623 11.429C143.086 11.0761 142.465 10.8997 141.759 10.8997C141.013 10.8997 140.356 11.0991 139.788 11.498C139.221 11.8969 138.776 12.4236 138.453 13.0781ZM151.457 21.0784C152.183 21.5898 153.029 21.8454 153.996 21.8454C154.712 21.8454 155.307 21.7176 155.783 21.4619C156.264 21.2062 156.65 20.8918 156.941 20.5185C157.233 20.14 157.458 19.7719 157.616 19.4139H157.777V21.6H159.112V5.8909H157.739V12.0656H157.616C157.458 11.7128 157.235 11.3497 156.949 10.9764C156.662 10.6031 156.282 10.2912 155.806 10.0406C155.33 9.78493 154.735 9.65709 154.019 9.65709C153.047 9.65709 152.196 9.91278 151.464 10.4241C150.733 10.9304 150.163 11.6412 149.754 12.5565C149.35 13.4668 149.148 14.5278 149.148 15.7398C149.148 16.9568 149.35 18.023 149.754 18.9383C150.163 19.8537 150.731 20.567 151.457 21.0784ZM156.105 19.9739C155.568 20.3881 154.919 20.5952 154.157 20.5952C153.374 20.5952 152.712 20.3804 152.17 19.9508C151.633 19.5162 151.224 18.9307 150.943 18.1943C150.662 17.4579 150.521 16.6321 150.521 15.7168C150.521 14.8116 150.659 13.996 150.935 13.2699C151.216 12.5437 151.626 11.9685 152.162 11.544C152.705 11.1145 153.369 10.8997 154.157 10.8997C154.924 10.8997 155.576 11.1068 156.113 11.521C156.65 11.9301 157.059 12.4977 157.34 13.2239C157.621 13.9449 157.762 14.7758 157.762 15.7168C157.762 16.6679 157.619 17.5116 157.332 18.248C157.051 18.9793 156.642 19.5545 156.105 19.9739ZM170.487 17.0974V9.81817H171.853V21.6H170.487V19.644H170.38C170.104 20.2474 169.666 20.7511 169.068 21.1551C168.47 21.554 167.739 21.7534 166.874 21.7534C166.123 21.7534 165.455 21.5898 164.872 21.2625C164.289 20.9301 163.832 20.4443 163.499 19.8051C163.167 19.1659 163.001 18.381 163.001 17.4503V9.81817H164.366V17.3659C164.366 18.2864 164.637 19.0278 165.179 19.5903C165.721 20.1477 166.417 20.4264 167.266 20.4264C167.797 20.4264 168.309 20.2986 168.8 20.0429C169.291 19.7872 169.695 19.4139 170.012 18.923C170.329 18.427 170.487 17.8185 170.487 17.0974ZM176.833 21.6V5.8909H175.467V21.6H176.833ZM185.209 21.8454C184.109 21.8454 183.158 21.5898 182.355 21.0784C181.552 20.5619 180.931 19.8486 180.491 18.9383C180.057 18.023 179.839 16.9696 179.839 15.7781C179.839 14.5918 180.057 13.5383 180.491 12.6179C180.931 11.6923 181.537 10.9687 182.309 10.4472C183.087 9.92045 183.984 9.65709 185.002 9.65709C185.641 9.65709 186.257 9.77471 186.85 10.0099C187.443 10.24 187.975 10.5954 188.446 11.0761C188.921 11.5517 189.297 12.1525 189.573 12.8787C189.849 13.5997 189.987 14.4537 189.987 15.4406V16.1156H181.214C181.232 16.9813 181.393 17.7433 181.696 18.4014C182.023 19.0969 182.486 19.6364 183.084 20.0199C183.682 20.4034 184.391 20.5952 185.209 20.5952C185.766 20.5952 186.254 20.5082 186.674 20.3344C187.098 20.1605 187.454 19.9278 187.74 19.6364C188.031 19.3398 188.251 19.015 188.4 18.6622L189.696 19.0841C189.517 19.5801 189.223 20.0378 188.814 20.4571C188.41 20.8764 187.904 21.2139 187.295 21.4696C186.692 21.7202 185.996 21.8454 185.209 21.8454ZM181.696 13.0781C181.422 13.6434 181.264 14.2545 181.223 14.9114H188.591C188.591 14.1545 188.438 13.4744 188.131 12.871C187.829 12.2625 187.408 11.7818 186.866 11.429C186.329 11.0761 185.707 10.8997 185.002 10.8997C184.255 10.8997 183.598 11.0991 183.03 11.498C182.463 11.8969 182.018 12.4236 181.696 13.0781ZM192.996 9.81817V21.6H194.361V13.9909C194.361 13.4079 194.5 12.8889 194.776 12.4338C195.052 11.9787 195.428 11.6233 195.903 11.3676C196.384 11.1068 196.931 10.9764 197.545 10.9764C197.724 10.9764 197.89 10.9866 198.043 11.0071C198.197 11.0275 198.304 11.0429 198.365 11.0531V9.66476C198.273 9.65965 198.158 9.65454 198.02 9.64942C197.882 9.64431 197.757 9.64175 197.644 9.64175C196.903 9.64175 196.238 9.82584 195.65 10.194C195.067 10.5571 194.658 11.0352 194.423 11.6284H194.323V9.81817H192.996ZM33.7654 21.5999V5.89082H39.9631C41.1495 5.89082 42.162 6.10304 43.0006 6.52747C43.8444 6.94679 44.4861 7.54252 44.9259 8.31468C45.3708 9.08173 45.5932 9.98429 45.5932 11.0224C45.5932 12.0655 45.3682 12.963 44.9182 13.7147C44.4682 14.4613 43.8162 15.034 42.9623 15.4329C42.9154 15.4549 42.8681 15.4763 42.8202 15.497L46.1532 21.5999H42.4867L39.5111 16.0312H37.0867V21.5999H33.7654ZM39.3418 13.3618H37.0867V8.60616H39.3265C39.9657 8.60616 40.4949 8.70076 40.9142 8.88997C41.3387 9.07406 41.6532 9.34508 41.8577 9.70304C42.0674 10.061 42.1722 10.5008 42.1722 11.0224C42.1722 11.5388 42.0674 11.9709 41.8577 12.3187C41.6532 12.6664 41.3412 12.9272 40.9219 13.101C40.5026 13.2749 39.9759 13.3618 39.3418 13.3618ZM53.0585 21.83C51.8466 21.83 50.8034 21.5846 49.9289 21.0937C49.0596 20.5976 48.3897 19.8971 47.9193 18.992C47.4488 18.0817 47.2136 17.0053 47.2136 15.7627C47.2136 14.5508 47.4488 13.4871 47.9193 12.5718C48.3897 11.6564 49.052 10.9431 49.9059 10.4317C50.765 9.92037 51.7724 9.66468 52.9281 9.66468C53.7054 9.66468 54.4289 9.78997 55.0988 10.0405C55.7738 10.286 56.3619 10.6567 56.863 11.1528C57.3693 11.6488 57.763 12.2726 58.0443 13.0243C58.3255 13.7709 58.4662 14.6454 58.4662 15.6476V16.5451H50.4429V16.5528C50.4429 17.1357 50.5503 17.6394 50.765 18.0638C50.9849 18.4883 51.2943 18.8155 51.6931 19.0456C52.092 19.2758 52.565 19.3908 53.1122 19.3908C53.4753 19.3908 53.8076 19.3397 54.1093 19.2374C54.411 19.1351 54.6693 18.9817 54.8841 18.7772C55.0988 18.5726 55.2625 18.3221 55.375 18.0255L58.3971 18.2249C58.2437 18.951 57.9292 19.5851 57.4537 20.1272C56.9832 20.6641 56.3747 21.0834 55.6281 21.3851C54.8866 21.6817 54.0301 21.83 53.0585 21.83ZM50.7727 13.3618C50.5746 13.7109 50.4656 14.097 50.4459 14.5201H55.3903C55.3903 14.0496 55.288 13.6329 55.0835 13.2698C54.8789 12.9067 54.5951 12.6229 54.2321 12.4184C53.8741 12.2087 53.4574 12.1039 52.9818 12.1039C52.4858 12.1039 52.046 12.2189 51.6625 12.4491C51.2841 12.6741 50.9875 12.9783 50.7727 13.3618ZM61.9485 21.4312C62.5366 21.692 63.2065 21.8224 63.9582 21.8224C64.5412 21.8224 65.0551 21.7456 65.5 21.5922C65.9449 21.4337 66.3258 21.2164 66.6429 20.9403C66.9599 20.659 67.213 20.3343 67.4022 19.9661H67.4943V21.5999H70.5932V13.6533C70.5932 12.9528 70.4576 12.3519 70.1866 11.8508C69.9156 11.3445 69.5449 10.9303 69.0744 10.6081C68.6091 10.286 68.0747 10.0482 67.4713 9.8948C66.873 9.74139 66.2466 9.66468 65.592 9.66468C64.6511 9.66468 63.8227 9.80787 63.1068 10.0942C62.396 10.3755 61.8156 10.7795 61.3656 11.3062C60.9156 11.8278 60.6139 12.4465 60.4605 13.1624L63.4826 13.4079C63.5951 13.0192 63.8253 12.6971 64.173 12.4414C64.5207 12.1806 64.9886 12.0502 65.5767 12.0502C66.1341 12.0502 66.5636 12.1831 66.8653 12.4491C67.1721 12.715 67.3255 13.0908 67.3255 13.5766V13.6226C67.3255 13.8732 67.2309 14.0624 67.0417 14.1903C66.8525 14.3181 66.5483 14.4153 66.1289 14.4817C65.7096 14.5431 65.1574 14.6096 64.4721 14.6812C63.8892 14.7374 63.3318 14.8346 62.8 14.9726C62.2733 15.1107 61.8028 15.3153 61.3886 15.5863C60.9744 15.8573 60.6471 16.2153 60.4068 16.6601C60.1664 17.105 60.0463 17.6547 60.0463 18.3093C60.0463 19.0866 60.215 19.736 60.5525 20.2576C60.8951 20.7741 61.3605 21.1653 61.9485 21.4312ZM66.1673 19.2834C65.7991 19.4726 65.3747 19.5672 64.894 19.5672C64.3929 19.5672 63.9787 19.4522 63.6514 19.2221C63.3292 18.9868 63.1681 18.6468 63.1681 18.2019C63.1681 17.8951 63.2474 17.6394 63.4059 17.4349C63.5645 17.2252 63.7869 17.059 64.0733 16.9363C64.3596 16.8135 64.6946 16.7241 65.0781 16.6678C65.2571 16.6422 65.4565 16.6141 65.6764 16.5834C65.8963 16.5476 66.1162 16.5093 66.336 16.4684C66.5559 16.4224 66.7528 16.3738 66.9267 16.3226C67.1056 16.2664 67.2463 16.205 67.3485 16.1385V17.3888C67.3485 17.803 67.2437 18.1738 67.0341 18.501C66.8244 18.8283 66.5355 19.0891 66.1673 19.2834ZM78.4515 21.83C77.2447 21.83 76.2066 21.5743 75.3373 21.063C74.4731 20.5465 73.8083 19.8306 73.343 18.9153C72.8828 17.9999 72.6527 16.9465 72.6527 15.755C72.6527 14.5482 72.8853 13.4897 73.3507 12.5795C73.8211 11.6641 74.4885 10.9508 75.3527 10.4394C76.2169 9.92292 77.2447 9.66468 78.4362 9.66468C79.464 9.66468 80.364 9.85133 81.1362 10.2246C81.9083 10.5979 82.5194 11.1221 82.9694 11.7971C83.4194 12.4721 83.6674 13.2647 83.7135 14.1749H80.6299C80.543 13.5868 80.3129 13.1138 79.9396 12.7559C79.5714 12.3928 79.0882 12.2113 78.4899 12.2113C77.9836 12.2113 77.5413 12.3493 77.1629 12.6255C76.7896 12.8965 76.4981 13.2928 76.2885 13.8144C76.0788 14.336 75.974 14.9675 75.974 15.709C75.974 16.4607 76.0762 17.0999 76.2808 17.6266C76.4905 18.1533 76.7845 18.5547 77.1629 18.8309C77.5413 19.107 77.9836 19.2451 78.4899 19.2451C78.8632 19.2451 79.1981 19.1684 79.4947 19.015C79.7964 18.8616 80.0444 18.6391 80.2387 18.3476C80.4382 18.051 80.5686 17.6956 80.6299 17.2814H83.7135C83.6623 18.1814 83.4169 18.9741 82.9771 19.6593C82.5424 20.3394 81.9416 20.8712 81.1745 21.2547C80.4075 21.6383 79.4998 21.83 78.4515 21.83ZM92.0723 12.2726V9.81809H89.8556V6.99537H86.588V9.81809H84.9772V12.2726H86.588V18.409C86.5828 19.1812 86.7439 19.8204 87.0712 20.3266C87.3985 20.8329 87.8561 21.2062 88.4442 21.4465C89.0374 21.6868 89.7277 21.7917 90.5152 21.761C90.9397 21.7456 91.3002 21.7022 91.5968 21.6306C91.8934 21.5641 92.1235 21.5053 92.2871 21.4542L91.7732 19.0226C91.6914 19.038 91.5738 19.061 91.4203 19.0917C91.2669 19.1172 91.1135 19.13 90.9601 19.13C90.7402 19.13 90.5459 19.0968 90.3772 19.0303C90.2135 18.9638 90.0857 18.8488 89.9936 18.6851C89.9016 18.5164 89.8556 18.2812 89.8556 17.9795V12.2726H92.0723Z" fill="#1C222F" fill-opacity="0.65"/>
<path d="M12.5999 7.20002C12.5999 6.20591 13.4058 5.40002 14.3999 5.40002H25.1999C26.194 5.40002 26.9999 6.20591 26.9999 7.20002V10.8C26.9999 11.7941 26.194 12.6 25.1999 12.6H14.3999C13.4058 12.6 12.5999 11.7941 12.5999 10.8V7.20002Z" fill="#EF6E6E"/>
<path d="M5.3999 7.20002C5.3999 6.20591 6.20579 5.40002 7.1999 5.40002H8.9999C9.99401 5.40002 10.7999 6.20591 10.7999 7.20002V10.8C10.7999 11.7941 9.99401 12.6 8.9999 12.6H7.1999C6.20579 12.6 5.3999 11.7941 5.3999 10.8V7.20002Z" fill="#E6D215"/>
<path d="M19.7999 16.2C19.7999 15.2059 20.6058 14.4 21.5999 14.4H25.1999C26.194 14.4 26.9999 15.2059 26.9999 16.2V19.8C26.9999 20.7941 26.194 21.6 25.1999 21.6H21.5999C20.6058 21.6 19.7999 20.7941 19.7999 19.8V16.2Z" fill="#17CBE5"/>
<path d="M5.3999 16.2C5.3999 15.2059 6.20579 14.4 7.1999 14.4H16.1999C17.194 14.4 17.9999 15.2059 17.9999 16.2V19.8C17.9999 20.7941 17.194 21.6 16.1999 21.6H7.1999C6.20579 21.6 5.3999 20.7941 5.3999 19.8V16.2Z" fill="#7D9DFF"/>
</svg>
