<svg width="206" height="28" viewBox="0 0 206 28" fill="none" xmlns="http://www.w3.org/2000/svg">
<path fill-rule="evenodd" clip-rule="evenodd" d="M107.816 10.3187C107.729 9.44423 107.343 8.74877 106.657 8.2323C105.972 7.71582 105.111 7.45758 104.073 7.45758C103.341 7.45758 102.697 7.58287 102.14 7.83343C101.587 8.084 101.153 8.43173 100.836 8.87662C100.524 9.31639 100.368 9.81753 100.368 10.38C100.368 10.7942 100.457 11.1573 100.636 11.4692C100.815 11.7812 101.055 12.0496 101.357 12.2746C101.664 12.4945 102.002 12.6837 102.37 12.8422C102.743 13.0008 103.119 13.1337 103.497 13.2411L105.154 13.7167C105.655 13.8547 106.156 14.0312 106.657 14.2459C107.159 14.4607 107.616 14.7317 108.03 15.059C108.45 15.3812 108.785 15.7775 109.035 16.2479C109.291 16.7133 109.419 17.2732 109.419 17.9278C109.419 18.7664 109.202 19.5206 108.767 20.1905C108.332 20.8604 107.708 21.3922 106.895 21.786C106.082 22.1746 105.108 22.3689 103.973 22.3689C102.904 22.3689 101.976 22.1925 101.188 21.8397C100.401 21.4817 99.7822 20.9883 99.3322 20.3593C98.8822 19.7303 98.6291 19.0016 98.5728 18.1732H100.046C100.097 18.792 100.301 19.3161 100.659 19.7456C101.017 20.1752 101.482 20.5025 102.055 20.7275C102.628 20.9474 103.267 21.0573 103.973 21.0573C104.755 21.0573 105.451 20.9269 106.059 20.6661C106.673 20.4002 107.153 20.032 107.501 19.5616C107.854 19.086 108.03 18.5337 108.03 17.9047C108.03 17.3729 107.892 16.928 107.616 16.5701C107.34 16.207 106.954 15.9028 106.458 15.6573C105.967 15.4118 105.397 15.1945 104.748 15.0053L102.868 14.453C101.636 14.0849 100.68 13.576 99.9995 12.9266C99.3194 12.2772 98.9793 11.4488 98.9793 10.4414C98.9793 9.59764 99.2043 8.85616 99.6544 8.21696C100.109 7.57264 100.723 7.0715 101.495 6.71355C102.273 6.35048 103.144 6.16895 104.111 6.16895C105.088 6.16895 105.952 6.34792 106.703 6.70588C107.455 7.06383 108.051 7.5573 108.491 8.18627C108.936 8.81014 109.173 9.52093 109.204 10.3187H107.816ZM117.189 22.3459C116.136 22.3459 115.218 22.0826 114.435 21.5559C113.658 21.0292 113.055 20.3082 112.625 19.3928C112.196 18.4775 111.981 17.4343 111.981 16.2633C111.981 15.082 112.198 14.0312 112.633 13.1107C113.073 12.1903 113.681 11.4692 114.458 10.9476C115.236 10.4209 116.138 10.1576 117.166 10.1576C117.953 10.1576 118.667 10.311 119.306 10.6178C119.945 10.9195 120.472 11.3465 120.886 11.8988C121.305 12.4459 121.569 13.0851 121.676 13.8164H120.296C120.152 13.1516 119.807 12.584 119.26 12.1135C118.718 11.638 118.028 11.4002 117.189 11.4002C116.437 11.4002 115.773 11.6047 115.195 12.0138C114.617 12.4178 114.164 12.9829 113.837 13.709C113.515 14.43 113.354 15.2661 113.354 16.2172C113.354 17.1735 113.512 18.0198 113.829 18.7562C114.146 19.4874 114.591 20.0601 115.164 20.4743C115.742 20.8885 116.417 21.0956 117.189 21.0956C117.711 21.0956 118.186 20.9985 118.616 20.8042C119.05 20.6047 119.413 20.3235 119.705 19.9604C120.002 19.5974 120.201 19.1653 120.303 18.6641H121.684C121.582 19.3749 121.328 20.009 120.925 20.5664C120.526 21.1187 120.007 21.5533 119.367 21.8704C118.733 22.1874 118.007 22.3459 117.189 22.3459ZM125.976 22.1005V14.7368C125.976 14.0516 126.116 13.461 126.397 12.965C126.684 12.4638 127.072 12.0803 127.563 11.8144C128.054 11.5485 128.614 11.4155 129.243 11.4155C130.158 11.4155 130.885 11.6968 131.422 12.2593C131.964 12.8167 132.235 13.5812 132.235 14.5528V22.1005H133.608V14.4684C133.608 13.5326 133.439 12.7451 133.101 12.1059C132.764 11.4667 132.293 10.9834 131.69 10.6562C131.087 10.3289 130.386 10.1653 129.588 10.1653C128.699 10.1653 127.962 10.3468 127.379 10.7099C126.801 11.0729 126.374 11.5587 126.098 12.1672H125.976V6.39139H124.61V22.1005H125.976ZM141.966 22.3459C140.867 22.3459 139.916 22.0903 139.113 21.5789C138.31 21.0624 137.689 20.3491 137.249 19.4388C136.814 18.5235 136.597 17.4701 136.597 16.2786C136.597 15.0922 136.814 14.0388 137.249 13.1184C137.689 12.1928 138.295 11.4692 139.067 10.9476C139.844 10.4209 140.742 10.1576 141.759 10.1576C142.399 10.1576 143.015 10.2752 143.608 10.5104C144.201 10.7405 144.733 11.0959 145.203 11.5766C145.679 12.0522 146.055 12.653 146.331 13.3792C146.607 14.1002 146.745 14.9542 146.745 15.9411V16.6161H137.972C137.99 17.4818 138.151 18.2438 138.453 18.9019C138.781 19.5974 139.243 20.1368 139.842 20.5204C140.44 20.9039 141.148 21.0956 141.966 21.0956C142.524 21.0956 143.012 21.0087 143.432 20.8349C143.856 20.661 144.211 20.4283 144.498 20.1368C144.789 19.8403 145.009 19.5155 145.157 19.1627L146.454 19.5846C146.275 20.0806 145.981 20.5383 145.572 20.9576C145.168 21.3769 144.661 21.7144 144.053 21.9701C143.449 22.2206 142.754 22.3459 141.966 22.3459ZM138.453 13.5786C138.18 14.1439 138.022 14.755 137.981 15.4118H145.349C145.349 14.655 145.196 13.9749 144.889 13.3715C144.587 12.763 144.165 12.2823 143.623 11.9295C143.086 11.5766 142.465 11.4002 141.759 11.4002C141.013 11.4002 140.356 11.5996 139.788 11.9985C139.22 12.3974 138.776 12.9241 138.453 13.5786ZM151.457 21.5789C152.183 22.0903 153.029 22.3459 153.996 22.3459C154.712 22.3459 155.307 22.2181 155.783 21.9624C156.264 21.7067 156.65 21.3922 156.941 21.0189C157.233 20.6405 157.458 20.2724 157.616 19.9144H157.777V22.1005H159.112V6.39139H157.739V12.5661H157.616C157.458 12.2133 157.235 11.8502 156.949 11.4769C156.662 11.1036 156.281 10.7917 155.806 10.5411C155.33 10.2854 154.735 10.1576 154.019 10.1576C153.047 10.1576 152.196 10.4133 151.464 10.9246C150.733 11.4309 150.163 12.1417 149.754 13.057C149.35 13.9672 149.148 15.0283 149.148 16.2403C149.148 17.4573 149.35 18.5235 149.754 19.4388C150.163 20.3542 150.731 21.0675 151.457 21.5789ZM156.105 20.4743C155.568 20.8885 154.919 21.0956 154.157 21.0956C153.374 21.0956 152.712 20.8809 152.17 20.4513C151.633 20.0167 151.224 19.4312 150.943 18.6948C150.662 17.9584 150.521 17.1326 150.521 16.2172C150.521 15.3121 150.659 14.4965 150.935 13.7704C151.216 13.0442 151.626 12.4689 152.162 12.0445C152.704 11.615 153.369 11.4002 154.157 11.4002C154.924 11.4002 155.576 11.6073 156.113 12.0215C156.65 12.4306 157.059 12.9982 157.34 13.7243C157.621 14.4454 157.762 15.2763 157.762 16.2172C157.762 17.1684 157.619 18.0121 157.332 18.7485C157.051 19.4797 156.642 20.055 156.105 20.4743ZM170.487 17.5979V10.3187H171.852V22.1005H170.487V20.1445H170.38C170.104 20.7479 169.666 21.2516 169.068 21.6556C168.47 22.0545 167.739 22.2539 166.874 22.2539C166.123 22.2539 165.455 22.0903 164.872 21.763C164.289 21.4306 163.832 20.9448 163.499 20.3056C163.167 19.6664 163.001 18.8814 163.001 17.9508V10.3187H164.366V17.8664C164.366 18.7868 164.637 19.5283 165.179 20.0908C165.721 20.6482 166.417 20.9269 167.266 20.9269C167.797 20.9269 168.309 20.7991 168.8 20.5434C169.291 20.2877 169.695 19.9144 170.012 19.4235C170.329 18.9275 170.487 18.3189 170.487 17.5979ZM176.833 22.1005V6.39139H175.467V22.1005H176.833ZM185.209 22.3459C184.109 22.3459 183.158 22.0903 182.355 21.5789C181.552 21.0624 180.931 20.3491 180.491 19.4388C180.057 18.5235 179.839 17.4701 179.839 16.2786C179.839 15.0922 180.057 14.0388 180.491 13.1184C180.931 12.1928 181.537 11.4692 182.309 10.9476C183.087 10.4209 183.984 10.1576 185.002 10.1576C185.641 10.1576 186.257 10.2752 186.85 10.5104C187.443 10.7405 187.975 11.0959 188.446 11.5766C188.921 12.0522 189.297 12.653 189.573 13.3792C189.849 14.1002 189.987 14.9542 189.987 15.9411V16.6161H181.214C181.232 17.4818 181.393 18.2438 181.696 18.9019C182.023 19.5974 182.486 20.1368 183.084 20.5204C183.682 20.9039 184.39 21.0956 185.209 21.0956C185.766 21.0956 186.254 21.0087 186.674 20.8349C187.098 20.661 187.454 20.4283 187.74 20.1368C188.031 19.8403 188.251 19.5155 188.4 19.1627L189.696 19.5846C189.517 20.0806 189.223 20.5383 188.814 20.9576C188.41 21.3769 187.904 21.7144 187.295 21.9701C186.692 22.2206 185.996 22.3459 185.209 22.3459ZM181.696 13.5786C181.422 14.1439 181.264 14.755 181.223 15.4118H188.591C188.591 14.655 188.438 13.9749 188.131 13.3715C187.829 12.763 187.408 12.2823 186.865 11.9295C186.329 11.5766 185.707 11.4002 185.002 11.4002C184.255 11.4002 183.598 11.5996 183.03 11.9985C182.463 12.3974 182.018 12.9241 181.696 13.5786ZM192.996 10.3187V22.1005H194.361V14.4914C194.361 13.9084 194.499 13.3894 194.776 12.9343C195.052 12.4792 195.428 12.1238 195.903 11.8681C196.384 11.6073 196.931 11.4769 197.545 11.4769C197.724 11.4769 197.89 11.4871 198.043 11.5076C198.197 11.528 198.304 11.5434 198.365 11.5536V10.1653C198.273 10.1601 198.158 10.155 198.02 10.1499C197.882 10.1448 197.757 10.1422 197.644 10.1422C196.903 10.1422 196.238 10.3263 195.65 10.6945C195.067 11.0576 194.658 11.5357 194.423 12.1289H194.323V10.3187H192.996ZM33.7651 22.1004V6.39131H39.9629C41.1492 6.39131 42.1617 6.60352 43.0004 7.02796C43.8441 7.44727 44.4859 8.04301 44.9256 8.81517C45.3705 9.58222 45.593 10.4848 45.593 11.5228C45.593 12.566 45.368 13.4635 44.918 14.2152C44.468 14.9618 43.816 15.5345 42.962 15.9334C42.9152 15.9554 42.8678 15.9767 42.8199 15.9975L46.1529 22.1004H42.4864L39.5109 16.5316H37.0864V22.1004H33.7651ZM39.3416 13.8623H37.0864V9.10665H39.3262C39.9654 9.10665 40.4947 9.20125 40.914 9.39046C41.3384 9.57455 41.6529 9.84557 41.8575 10.2035C42.0671 10.5615 42.172 11.0013 42.172 11.5228C42.172 12.0393 42.0671 12.4714 41.8575 12.8191C41.6529 13.1669 41.341 13.4277 40.9217 13.6015C40.5024 13.7754 39.9756 13.8623 39.3416 13.8623ZM53.0582 22.3305C51.8463 22.3305 50.8031 22.0851 49.9287 21.5941C49.0594 21.0981 48.3895 20.3976 47.919 19.4924C47.4486 18.5822 47.2134 17.5058 47.2134 16.2632C47.2134 15.0513 47.4486 13.9876 47.919 13.0723C48.3895 12.1569 49.0517 11.4436 49.9057 10.9322C50.7648 10.4209 51.7722 10.1652 52.9278 10.1652C53.7051 10.1652 54.4287 10.2905 55.0986 10.541C55.7736 10.7865 56.3617 11.1572 56.8628 11.6532C57.369 12.1493 57.7628 12.7731 58.044 13.5248C58.3253 14.2714 58.4659 15.1459 58.4659 16.1481V17.0456H50.4426V17.0532C50.4426 17.6362 50.55 18.1399 50.7648 18.5643C50.9847 18.9888 51.294 19.316 51.6929 19.5461C52.0918 19.7763 52.5648 19.8913 53.1119 19.8913C53.475 19.8913 53.8074 19.8402 54.1091 19.7379C54.4108 19.6356 54.669 19.4822 54.8838 19.2777C55.0986 19.0731 55.2622 18.8226 55.3747 18.526L58.3969 18.7254C58.2435 19.4515 57.929 20.0856 57.4534 20.6277C56.983 21.1646 56.3744 21.5839 55.6278 21.8856C54.8864 22.1822 54.0298 22.3305 53.0582 22.3305ZM50.7725 13.8623C50.5743 14.2114 50.4654 14.5975 50.4457 15.0206H55.3901C55.3901 14.5501 55.2878 14.1334 55.0832 13.7703C54.8787 13.4072 54.5949 13.1234 54.2318 12.9189C53.8739 12.7092 53.4571 12.6044 52.9815 12.6044C52.4855 12.6044 52.0457 12.7194 51.6622 12.9495C51.2838 13.1745 50.9872 13.4788 50.7725 13.8623ZM61.9483 21.9316C62.5364 22.1924 63.2063 22.3228 63.958 22.3228C64.5409 22.3228 65.0548 22.2461 65.4997 22.0927C65.9446 21.9342 66.3256 21.7169 66.6426 21.4407C66.9597 21.1595 67.2128 20.8348 67.402 20.4666H67.494V22.1004H70.5929V14.1538C70.5929 13.4532 70.4574 12.8524 70.1864 12.3513C69.9153 11.845 69.5446 11.4308 69.0742 11.1086C68.6088 10.7865 68.0744 10.5487 67.471 10.3953C66.8727 10.2419 66.2463 10.1652 65.5918 10.1652C64.6509 10.1652 63.8225 10.3084 63.1065 10.5947C62.3957 10.876 61.8153 11.2799 61.3653 11.8066C60.9153 12.3282 60.6136 12.947 60.4602 13.6629L63.4824 13.9084C63.5949 13.5197 63.825 13.1976 64.1727 12.9419C64.5205 12.6811 64.9884 12.5507 65.5764 12.5507C66.1338 12.5507 66.5634 12.6836 66.8651 12.9495C67.1719 13.2155 67.3253 13.5913 67.3253 14.0771V14.1231C67.3253 14.3737 67.2307 14.5629 67.0415 14.6907C66.8523 14.8186 66.548 14.9157 66.1287 14.9822C65.7094 15.0436 65.1571 15.1101 64.4719 15.1816C63.8889 15.2379 63.3315 15.3351 62.7997 15.4731C62.273 15.6112 61.8026 15.8157 61.3884 16.0868C60.9742 16.3578 60.6469 16.7157 60.4065 17.1606C60.1662 17.6055 60.046 18.1552 60.046 18.8098C60.046 19.587 60.2148 20.2365 60.5523 20.7581C60.8949 21.2745 61.3602 21.6657 61.9483 21.9316ZM66.1671 19.7839C65.7989 19.9731 65.3744 20.0677 64.8938 20.0677C64.3926 20.0677 63.9784 19.9527 63.6511 19.7226C63.329 19.4873 63.1679 19.1473 63.1679 18.7024C63.1679 18.3956 63.2472 18.1399 63.4057 17.9353C63.5642 17.7257 63.7867 17.5595 64.073 17.4368C64.3594 17.314 64.6943 17.2245 65.0778 17.1683C65.2568 17.1427 65.4563 17.1146 65.6761 17.0839C65.896 17.0481 66.1159 17.0098 66.3358 16.9689C66.5557 16.9228 66.7526 16.8743 66.9264 16.8231C67.1054 16.7669 67.246 16.7055 67.3483 16.639V17.8893C67.3483 18.3035 67.2435 18.6743 67.0338 19.0015C66.8242 19.3288 66.5352 19.5896 66.1671 19.7839ZM78.4513 22.3305C77.2445 22.3305 76.2064 22.0748 75.3371 21.5635C74.4729 21.047 73.8081 20.3311 73.3428 19.4157C72.8825 18.5004 72.6524 17.447 72.6524 16.2555C72.6524 15.0487 72.8851 13.9902 73.3504 13.0799C73.8209 12.1646 74.4882 11.4513 75.3524 10.9399C76.2166 10.4234 77.2445 10.1652 78.4359 10.1652C79.4638 10.1652 80.3638 10.3518 81.1359 10.7251C81.9081 11.0984 82.5192 11.6226 82.9692 12.2976C83.4192 12.9726 83.6672 13.7652 83.7132 14.6754H80.6297C80.5428 14.0873 80.3126 13.6143 79.9394 13.2564C79.5712 12.8933 79.0879 12.7118 78.4896 12.7118C77.9834 12.7118 77.5411 12.8498 77.1627 13.126C76.7894 13.397 76.4979 13.7933 76.2882 14.3149C76.0786 14.8365 75.9737 15.468 75.9737 16.2095C75.9737 16.9612 76.076 17.6004 76.2805 18.1271C76.4902 18.6538 76.7842 19.0552 77.1627 19.3314C77.5411 19.6075 77.9834 19.7456 78.4896 19.7456C78.8629 19.7456 79.1979 19.6689 79.4945 19.5155C79.7962 19.362 80.0442 19.1396 80.2385 18.8481C80.4379 18.5515 80.5683 18.1961 80.6297 17.7819H83.7132C83.6621 18.6819 83.4166 19.4745 82.9769 20.1598C82.5422 20.8399 81.9413 21.3717 81.1743 21.7552C80.4073 22.1388 79.4996 22.3305 78.4513 22.3305ZM92.0721 12.7731V10.3186H89.8553V7.49585H86.5877V10.3186H84.9769V12.7731H86.5877V18.9095C86.5826 19.6816 86.7437 20.3209 87.071 20.8271C87.3982 21.3334 87.8559 21.7066 88.444 21.947C89.0372 22.1873 89.7275 22.2922 90.515 22.2615C90.9394 22.2461 91.2999 22.2027 91.5965 22.1311C91.8931 22.0646 92.1232 22.0058 92.2869 21.9547L91.7729 19.5231C91.6911 19.5385 91.5735 19.5615 91.4201 19.5922C91.2667 19.6177 91.1133 19.6305 90.9599 19.6305C90.74 19.6305 90.5457 19.5973 90.3769 19.5308C90.2133 19.4643 90.0854 19.3493 89.9934 19.1856C89.9014 19.0169 89.8553 18.7816 89.8553 18.4799V12.7731H92.0721Z" fill="white"/>
<path d="M12.5999 7.70002C12.5999 6.70591 13.4058 5.90002 14.3999 5.90002H25.1999C26.194 5.90002 26.9999 6.70591 26.9999 7.70002V11.3C26.9999 12.2941 26.194 13.1 25.1999 13.1H14.3999C13.4058 13.1 12.5999 12.2941 12.5999 11.3V7.70002Z" fill="#EF6E6E"/>
<path d="M5.3999 7.70002C5.3999 6.70591 6.20579 5.90002 7.1999 5.90002H8.9999C9.99401 5.90002 10.7999 6.70591 10.7999 7.70002V11.3C10.7999 12.2941 9.99401 13.1 8.9999 13.1H7.1999C6.20579 13.1 5.3999 12.2941 5.3999 11.3V7.70002Z" fill="#E7D215"/>
<path d="M19.7999 16.7C19.7999 15.7059 20.6058 14.9 21.5999 14.9H25.1999C26.194 14.9 26.9999 15.7059 26.9999 16.7V20.3C26.9999 21.2941 26.194 22.1 25.1999 22.1H21.5999C20.6058 22.1 19.7999 21.2941 19.7999 20.3V16.7Z" fill="#17CBE6"/>
<path d="M5.3999 16.7C5.3999 15.7059 6.20579 14.9 7.1999 14.9H16.1999C17.194 14.9 17.9999 15.7059 17.9999 16.7V20.3C17.9999 21.2941 17.194 22.1 16.1999 22.1H7.1999C6.20579 22.1 5.3999 21.2941 5.3999 20.3V16.7Z" fill="#7D9DFF"/>
</svg>
