<svg width="24" height="24" viewBox="0 0 24 24" fill="none" xmlns="http://www.w3.org/2000/svg">
<path fill-rule="evenodd" clip-rule="evenodd" d="M13.8997 5.39966C14.1926 5.10677 14.6674 5.10677 14.9603 5.39966L21.0303 11.4697C21.171 11.6103 21.25 11.8011 21.25 12C21.25 12.1989 21.171 12.3897 21.0303 12.5303L14.9603 18.6003C14.6674 18.8932 14.1926 18.8932 13.8997 18.6003C13.6068 18.3074 13.6068 17.8326 13.8997 17.5397L18.6893 12.75H3.5C3.08579 12.75 2.75 12.4142 2.75 12C2.75 11.5858 3.08579 11.25 3.5 11.25H18.6893L13.8997 6.46032C13.6068 6.16743 13.6068 5.69256 13.8997 5.39966Z" />
</svg>
