<svg width="16" height="16" viewBox="0 0 16 16" fill="none" xmlns="http://www.w3.org/2000/svg">
<path fill-rule="evenodd" clip-rule="evenodd" d="M3.59957 6.73486C3.40431 6.5396 3.40431 6.22301 3.59957 6.02775L7.64624 1.98108C7.74001 1.88732 7.86718 1.83464 7.99979 1.83464C8.1324 1.83464 8.25958 1.88732 8.35334 1.98108L12.4 6.02775C12.5953 6.22301 12.5953 6.5396 12.4 6.73486C12.2047 6.93012 11.8882 6.93012 11.6929 6.73486L8.4998 3.54175L8.4998 13.668C8.4998 13.9441 8.27594 14.168 7.9998 14.168C7.72365 14.168 7.4998 13.9441 7.4998 13.668L7.4998 3.54174L4.30668 6.73486C4.11142 6.93012 3.79483 6.93012 3.59957 6.73486Z" />
</svg>
