<svg width="17" height="16" viewBox="0 0 17 16" fill="none" xmlns="http://www.w3.org/2000/svg">
<path fill-rule="evenodd" clip-rule="evenodd" d="M4.09957 9.26775C4.29483 9.07249 4.61142 9.07249 4.80668 9.26775L7.9998 12.4609L7.9998 2.33463C7.9998 2.05848 8.22365 1.83463 8.4998 1.83463C8.77594 1.83463 8.9998 2.05848 8.9998 2.33463L8.9998 12.4609L12.1929 9.26775C12.3882 9.07249 12.7047 9.07249 12.9 9.26775C13.0953 9.46301 13.0953 9.77959 12.9 9.97486L8.85334 14.0215C8.75958 14.1153 8.6324 14.168 8.49979 14.168C8.36718 14.168 8.24001 14.1153 8.14624 14.0215L4.09957 9.97486C3.90431 9.77959 3.90431 9.46301 4.09957 9.26775Z" />
</svg>
