<svg width="14" height="14" viewBox="0 0 14 14" fill="none" xmlns="http://www.w3.org/2000/svg">
<path fill-rule="evenodd" clip-rule="evenodd" d="M1.3125 2.91536C1.3125 2.02941 2.03071 1.3112 2.91667 1.3112H11.0833C11.9693 1.3112 12.6875 2.02941 12.6875 2.91536V11.082C12.6875 11.968 11.9693 12.6862 11.0833 12.6862H2.91667C2.03071 12.6862 1.3125 11.968 1.3125 11.082V2.91536ZM2.91667 2.1862C2.51396 2.1862 2.1875 2.51266 2.1875 2.91536V11.082C2.1875 11.4847 2.51396 11.8112 2.91667 11.8112H11.0833C11.486 11.8112 11.8125 11.4847 11.8125 11.082V2.91536C11.8125 2.51266 11.486 2.1862 11.0833 2.1862H2.91667Z" fill="#EF4444"/>
<path fill-rule="evenodd" clip-rule="evenodd" d="M4.375 0.144531C4.61662 0.144531 4.8125 0.340407 4.8125 0.582031V3.20703C4.8125 3.44866 4.61662 3.64453 4.375 3.64453C4.13338 3.64453 3.9375 3.44866 3.9375 3.20703V0.582031C3.9375 0.340407 4.13338 0.144531 4.375 0.144531Z" fill="#EF4444"/>
<path fill-rule="evenodd" clip-rule="evenodd" d="M9.625 0.144531C9.86662 0.144531 10.0625 0.340407 10.0625 0.582031V3.20703C10.0625 3.44866 9.86662 3.64453 9.625 3.64453C9.38338 3.64453 9.1875 3.44866 9.1875 3.20703V0.582031C9.1875 0.340407 9.38338 0.144531 9.625 0.144531Z" fill="#EF4444"/>
<path fill-rule="evenodd" clip-rule="evenodd" d="M9.05936 6.01326C9.23021 6.18411 9.23021 6.46112 9.05936 6.63198L5.55936 10.132C5.3885 10.3028 5.11149 10.3028 4.94064 10.132C4.76979 9.96112 4.76979 9.68411 4.94064 9.51326L8.44064 6.01326C8.6115 5.8424 8.8885 5.8424 9.05936 6.01326Z" fill="#EF4444"/>
<path fill-rule="evenodd" clip-rule="evenodd" d="M9.05936 10.132C8.8885 10.3028 8.61149 10.3028 8.44064 10.132L4.94064 6.63198C4.76979 6.46112 4.76979 6.18411 4.94064 6.01326C5.11149 5.8424 5.3885 5.8424 5.55936 6.01326L9.05936 9.51326C9.23021 9.68411 9.23021 9.96112 9.05936 10.132Z" fill="#EF4444"/>
<path fill-rule="evenodd" clip-rule="evenodd" d="M12.6875 4.66536C12.6875 4.90699 12.4916 5.10286 12.25 5.10286H1.75C1.50838 5.10286 1.3125 4.90699 1.3125 4.66536C1.3125 4.42374 1.50838 4.22786 1.75 4.22786H12.25C12.4916 4.22786 12.6875 4.42374 12.6875 4.66536Z" fill="#EF4444"/>
</svg>
