<svg width="24" height="24" viewBox="0 0 24 24" fill="none" xmlns="http://www.w3.org/2000/svg">
<path fill-rule="evenodd" clip-rule="evenodd" d="M12 2.75C6.89137 2.75 2.75 6.89137 2.75 12C2.75 14.2736 3.57027 16.3556 4.93102 17.9662C5.29334 17.2869 5.86897 16.6773 6.61129 16.1778L6.61502 16.1753L6.61503 16.1753C8.13359 15.1666 10.0914 14.685 12.0075 14.685C13.9234 14.685 15.8774 15.1665 17.3871 16.1767L17.3887 16.1778C18.131 16.6773 18.7067 17.2869 19.069 17.9662C20.4297 16.3556 21.25 14.2736 21.25 12C21.25 6.89137 17.1086 2.75 12 2.75ZM13.6371 22.6261C18.7972 21.8377 22.75 17.3805 22.75 12C22.75 6.06294 17.9371 1.25 12 1.25C6.06294 1.25 1.25 6.06294 1.25 12C1.25 17.9371 6.06294 22.75 12 22.75C12.1855 22.75 12.37 22.7453 12.5532 22.736C12.8268 22.7221 13.0977 22.698 13.3655 22.6641C13.4564 22.6526 13.5469 22.6399 13.6371 22.6261ZM17.9216 19.1C17.7538 18.5356 17.323 17.9417 16.5521 17.4228C15.3419 16.6133 13.6963 16.185 12.0075 16.185C10.3195 16.185 8.66811 16.613 7.44686 17.4235C6.67666 17.9422 6.24614 18.5359 6.07838 19.1C7.06079 19.9227 8.21266 20.5433 9.47543 20.9013C10.2779 21.1284 11.1248 21.25 12 21.25C12.8752 21.25 13.7221 21.1284 14.5246 20.9013C15.7873 20.5433 16.9392 19.9227 17.9216 19.1ZM12 6.98C10.5957 6.98 9.47 8.11272 9.47 9.51C9.47 10.8588 10.5236 11.9585 11.8587 12.0284C11.9506 12.0209 12.0487 12.0202 12.1439 12.0283C13.4732 11.9572 14.5212 10.8618 14.53 9.50795C14.5289 8.1131 13.3951 6.98 12 6.98ZM7.97 9.51C7.97 7.28728 9.7643 5.48 12 5.48C14.2242 5.48 16.03 7.28579 16.03 9.51V9.51424H16.03C16.0177 11.6826 14.3122 13.4557 12.1456 13.5296C12.1016 13.5311 12.0575 13.5287 12.0139 13.5225C12.0182 13.5231 12.0191 13.523 12.0163 13.5228C12.0137 13.5227 12.0094 13.5225 12.0037 13.5225C11.9915 13.5225 11.9801 13.5233 11.973 13.5242C11.9337 13.5291 11.8941 13.5309 11.8544 13.5296C9.69161 13.4558 7.97 11.6855 7.97 9.51Z" fill="#777"/>
</svg>
