<svg width="24" height="24" viewBox="0 0 24 24" fill="none" xmlns="http://www.w3.org/2000/svg">
<path fill-rule="evenodd" clip-rule="evenodd" d="M5.33008 2.76001C4.65781 2.76001 4.06006 3.31031 4.06006 4.13V6.45001C4.06006 6.6129 4.11982 6.88231 4.25809 7.19052C4.39356 7.49249 4.5738 7.76311 4.75036 7.93967L4.76365 7.9533L8.60367 11.9933C8.61628 12.0066 8.6284 12.0203 8.64001 12.0345C8.90276 12.3549 9.14136 12.7775 9.31532 13.2131C9.48804 13.6456 9.62006 14.1484 9.62006 14.63V19.98C9.62006 20.9693 10.7551 21.5824 11.6002 21.0655L13.0033 20.1599L13.0205 20.1491C13.1208 20.0882 13.2665 19.9358 13.3909 19.6966C13.5132 19.4611 13.5701 19.2272 13.5701 19.07C13.5701 18.6558 13.9059 18.32 14.3201 18.32C14.7343 18.32 15.0701 18.6558 15.0701 19.07C15.0701 19.5228 14.9269 19.9939 14.7218 20.3885C14.5202 20.7761 14.2142 21.1755 13.8093 21.425L12.4068 22.3302L12.3945 22.3379C10.6202 23.435 8.12006 22.2286 8.12006 19.98V14.63C8.12006 14.4016 8.05207 14.0944 7.92229 13.7694C7.79829 13.4589 7.63905 13.1851 7.49575 13.0049L3.68249 8.9931C3.3523 8.66063 3.08013 8.22943 2.8895 7.80449C2.70028 7.38271 2.56006 6.89712 2.56006 6.45001V4.13C2.56006 2.5297 3.78235 1.26001 5.33008 1.26001H18.67C20.1942 1.26001 21.4401 2.50577 21.4401 4.03V6.25C21.4401 6.79751 21.2722 7.36158 21.0548 7.83769C20.8366 8.31586 20.5373 8.77344 20.2104 9.10034C19.9175 9.39323 19.4426 9.39323 19.1497 9.10034C18.8568 8.80744 18.8568 8.33257 19.1497 8.03968C19.3228 7.86657 19.5285 7.56915 19.6903 7.21482C19.853 6.85843 19.9401 6.51249 19.9401 6.25V4.03C19.9401 3.33423 19.3658 2.76001 18.67 2.76001H5.33008Z" fill="currentColor"/>
<path fill-rule="evenodd" clip-rule="evenodd" d="M16.0701 10.87C14.717 10.87 13.6201 11.9669 13.6201 13.32C13.6201 14.6731 14.717 15.77 16.0701 15.77C17.4232 15.77 18.5201 14.6731 18.5201 13.32C18.5201 11.9669 17.4232 10.87 16.0701 10.87ZM12.1201 13.32C12.1201 11.1385 13.8885 9.37 16.0701 9.37C18.2516 9.37 20.0201 11.1385 20.0201 13.32C20.0201 15.5015 18.2516 17.27 16.0701 17.27C13.8886 17.27 12.1201 15.5015 12.1201 13.32Z" fill="currentColor"/>
<path fill-rule="evenodd" clip-rule="evenodd" d="M18.3397 15.5897C18.6326 15.2968 19.1075 15.2968 19.4004 15.5897L20.4004 16.5897C20.6933 16.8826 20.6933 17.3574 20.4004 17.6503C20.1075 17.9432 19.6326 17.9432 19.3397 17.6503L18.3397 16.6503C18.0468 16.3574 18.0468 15.8826 18.3397 15.5897Z" fill="currentColor"/>
</svg>
