<?xml version="1.0" encoding="UTF-8"?><svg id="Layer_1" xmlns="http://www.w3.org/2000/svg" xmlns:xlink="http://www.w3.org/1999/xlink" viewBox="0 0 514 440"><defs><style>.cls-1{fill:#fff;}.cls-2{fill:#dbf0fd;}.cls-3{fill:#1c222f;}.cls-4{fill:url(#radial-gradient);}</style><radialGradient id="radial-gradient" cx="256.33" cy="218.64" fx="256.33" fy="218.64" r="206.09" gradientUnits="userSpaceOnUse"><stop offset=".47" stop-color="#ccc"/><stop offset=".49" stop-color="#ccc" stop-opacity=".95"/><stop offset=".59" stop-color="#ccc" stop-opacity=".67"/><stop offset=".69" stop-color="#ccc" stop-opacity=".43"/><stop offset=".78" stop-color="#ccc" stop-opacity=".24"/><stop offset=".87" stop-color="#ccc" stop-opacity=".11"/><stop offset=".94" stop-color="#ccc" stop-opacity=".03"/><stop offset="1" stop-color="#ccc" stop-opacity="0"/></radialGradient></defs><path class="cls-4" d="m462.42,66.49v-1h-2.13V12.55h-1v52.94h-49.92V12.55h-1v52.94h-49.81V12.55h-1v52.94h-49.92V12.55h-1v52.94h-49.81V12.55h-1v52.94h-49.92V12.55h-1v52.94h-49.81V12.55h-1v52.94h-49.92V12.55h-1v52.94h-49.81V12.55h-1v52.94h-2.13v1h2.13v49.92h-2.13v1h2.13v49.81h-2.13v1h2.13v49.92h-2.13v1h2.13v49.81h-2.13v1h2.13v49.92h-2.13v1h2.13v49.81h-2.13v1h2.13v53.06h1v-53.06h49.81v53.06h1v-53.06h49.92v53.06h1v-53.06h49.81v53.06h1v-53.06h49.92v53.06h1v-53.06h49.81v53.06h1v-53.06h49.92v53.06h1v-53.06h49.81v53.06h1v-53.06h49.92v53.06h1v-53.06h2.13v-1h-2.13v-49.81h2.13v-1h-2.13v-49.92h2.13v-1h-2.13v-49.81h2.13v-1h-2.13v-49.92h2.13v-1h-2.13v-49.81h2.13v-1h-2.13v-49.92h2.13Zm-54.06,0v49.92h-49.81v-49.92h49.81Zm-152.54,151.65h-49.92v-49.92h49.92v49.92Zm1-49.92h49.81v49.92h-49.81v-49.92Zm-51.92,49.92h-49.81v-49.92h49.81v49.92Zm0,1v49.81h-49.81v-49.81h49.81Zm1,0h49.92v49.81h-49.92v-49.81Zm50.92,0h49.81v49.81h-49.81v-49.81Zm50.81,0h49.92v49.81h-49.92v-49.81Zm0-1v-49.92h49.92v49.92h-49.92Zm0-50.92v-49.81h49.92v49.81h-49.92Zm-1,0h-49.81v-49.81h49.81v49.81Zm-50.81,0h-49.92v-49.81h49.92v49.81Zm-50.92,0h-49.81v-49.81h49.81v49.81Zm-50.81,0h-49.92v-49.81h49.92v49.81Zm0,1v49.92h-49.92v-49.92h49.92Zm0,50.92v49.81h-49.92v-49.81h49.92Zm0,50.81v49.92h-49.92v-49.92h49.92Zm1,0h49.81v49.92h-49.81v-49.92Zm50.81,0h49.92v49.92h-49.92v-49.92Zm50.92,0h49.81v49.92h-49.81v-49.92Zm50.81,0h49.92v49.92h-49.92v-49.92Zm50.92,0h49.81v49.92h-49.81v-49.92Zm0-1v-49.81h49.81v49.81h-49.81Zm0-50.81v-49.92h49.81v49.92h-49.81Zm0-50.92v-49.81h49.81v49.81h-49.81Zm-1-100.73v49.92h-49.92v-49.92h49.92Zm-50.92,0v49.92h-49.81v-49.92h49.81Zm-50.81,0v49.92h-49.92v-49.92h49.92Zm-50.92,0v49.92h-49.81v-49.92h49.81Zm-50.81,0v49.92h-49.92v-49.92h49.92Zm-100.73,0h49.81v49.92h-49.81v-49.92Zm0,50.92h49.81v49.81h-49.81v-49.81Zm0,50.81h49.81v49.92h-49.81v-49.92Zm0,50.92h49.81v49.81h-49.81v-49.81Zm0,50.81h49.81v49.92h-49.81v-49.92Zm0,100.73v-49.81h49.81v49.81h-49.81Zm50.81,0v-49.81h49.92v49.81h-49.92Zm50.92,0v-49.81h49.81v49.81h-49.81Zm50.81,0v-49.81h49.92v49.81h-49.92Zm50.92,0v-49.81h49.81v49.81h-49.81Zm50.81,0v-49.81h49.92v49.81h-49.92Zm50.92,0v-49.81h49.81v49.81h-49.81Zm100.73,0h-49.92v-49.81h49.92v49.81Zm0-50.81h-49.92v-49.92h49.92v49.92Zm0-50.92h-49.92v-49.81h49.92v49.81Zm0-50.81h-49.92v-49.92h49.92v49.92Zm0-50.92h-49.92v-49.81h49.92v49.81Zm0-50.81h-49.92v-49.92h49.92v49.92Z"/><path class="cls-1" d="m418.99,155.87l-48.04,18.79v108.18h-227.53v-108.18l-48.04-18.79,38.34-27.86,42.94,13.48h161.03l42.94-13.48,38.34,27.86Zm-229.89-87.54c2.6-2.6,4.23-5.54,4.56-7.85,2.63,1.44,5.25,1.63,6.66.22,1.41-1.42,1.22-4.04-.23-6.66,2.31-.34,5.25-1.97,7.84-4.58,4.09-4.1,5.79-9.04,3.8-11.04-2-2-6.94-.29-11.03,3.81-2.42,2.42-3.99,5.13-4.47,7.35-3.13-2.38-6.62-3.01-8.33-1.29s-1.08,5.21,1.31,8.33c-2.23.48-4.93,2.06-7.35,4.48-4.09,4.1-5.79,9.04-3.8,11.04,2,2,6.94.29,11.03-3.81Zm10.82-2.58c1.28,1.28,3.55,1.1,5.06-.41,1.51-1.51,1.69-3.77.41-5.06-1.28-1.28-3.55-1.1-5.06.41-1.51,1.51-1.69,3.77-.41,5.06Z"/><path class="cls-2" d="m251.22,145.7c-.21-.72.21-1.48.93-1.68.72-.21,1.48.21,1.68.93.75,2.63,1.57,5.34,2.43,8.06.23.72-.17,1.48-.89,1.71-.14.04-.28.06-.41.06-.58,0-1.11-.37-1.3-.95-.87-2.74-1.69-5.48-2.46-8.13Zm-3.07-25.31c-.48-2.83-.87-5.63-1.17-8.3-.08-.75-.76-1.29-1.5-1.2-.75.08-1.28.76-1.2,1.5.31,2.72.71,5.56,1.19,8.45.11.66.69,1.13,1.34,1.13.07,0,.15,0,.23-.02.74-.12,1.24-.83,1.12-1.57Zm-3.2-15.22s.04,0,.06,0c.75-.03,1.33-.67,1.3-1.42-.07-1.55-.1-3.07-.1-4.53,0-1.31.03-2.58.08-3.81.03-.75-.55-1.39-1.3-1.42-.72-.02-1.39.55-1.42,1.3-.06,1.27-.08,2.57-.08,3.92,0,1.5.04,3.07.11,4.65.03.73.63,1.3,1.36,1.3Zm.6-16.88c.08.01.15.02.22.02.65,0,1.23-.47,1.34-1.14.47-2.88,1.14-5.56,1.98-7.97.25-.71-.13-1.49-.84-1.73-.71-.25-1.49.13-1.73.84-.89,2.56-1.6,5.39-2.1,8.42-.12.74.38,1.44,1.12,1.56Zm3.46,49.2c.16.62.71,1.03,1.32,1.03.11,0,.22-.01.33-.04.73-.18,1.17-.92.99-1.65-.7-2.78-1.35-5.53-1.91-8.19-.16-.74-.88-1.2-1.61-1.05-.73.16-1.2.88-1.05,1.61.57,2.69,1.23,5.48,1.94,8.28Zm16.4-73.89c.64-.08,1.28-.09,1.95-.12,1.95,0,3.88.34,5.75,1.02.15.06.31.08.46.08.56,0,1.08-.34,1.28-.9.26-.71-.11-1.49-.82-1.74-2.16-.78-4.41-1.18-6.67-1.18h0c-.76,0-1.52.05-2.27.14-.75.09-1.28.77-1.19,1.51.09.75.77,1.28,1.51,1.19Zm-16.95,29.4c-.25.71.12,1.49.83,1.74,2.87,1.01,5.66,1.82,8.28,2.4.1.02.2.03.3.03.62,0,1.19-.43,1.33-1.07.16-.73-.3-1.46-1.03-1.62-2.51-.56-5.19-1.34-7.96-2.31-.71-.25-1.49.12-1.74.83Zm35-17.62c.16.61.71,1.01,1.31,1.01.12,0,.24-.02.36-.05.73-.2,1.15-.94.96-1.67-.78-2.9-2.34-5.61-4.5-7.85-.52-.54-1.39-.56-1.92-.03-.54.52-.56,1.38-.03,1.92,1.84,1.9,3.16,4.21,3.83,6.67Zm-9.33,19.12c-2.25.77-4.91,1.12-7.86,1.05-.75-.03-1.38.57-1.4,1.32-.02.75.57,1.38,1.32,1.4.29,0,.57.01.86.01,2.95,0,5.63-.41,7.95-1.2.71-.24,1.09-1.02.84-1.73-.24-.71-1.02-1.09-1.73-.84Zm11-12.44c-.73-.16-1.46.31-1.62,1.04-.62,2.84-1.68,5.23-3.16,7.09-.47.59-.37,1.44.22,1.91.25.2.55.29.84.29.4,0,.8-.18,1.07-.51,1.74-2.19,2.98-4.95,3.68-8.2.16-.73-.31-1.46-1.04-1.62Zm-33.61-9.51c.44,0,.86-.21,1.13-.6,1.58-2.34,3.44-4.23,5.51-5.63.62-.42.79-1.27.37-1.89-.42-.62-1.27-.79-1.89-.37-2.37,1.6-4.47,3.74-6.25,6.36-.42.62-.26,1.47.36,1.89.23.16.5.23.76.23Zm-17.85,15.17c2.56,1.38,5.14,2.66,7.67,3.8.18.08.37.12.56.12.52,0,1.01-.3,1.24-.8.31-.68,0-1.49-.68-1.8-2.47-1.11-4.99-2.36-7.5-3.72-.66-.36-1.49-.11-1.84.55-.36.66-.11,1.49.55,1.84Zm-25.71-38.23c4.09-4.1-4.68,1.35-6.68-.64-2-2,3.54-10.69-.56-6.58-4.09,4.1-4.86,7.57-2.87,9.56,2,2,6.01,1.77,10.1-2.34Zm121.24,179.57c0,6.06-4.91,10.97-10.97,10.97s-10.97-4.91-10.97-10.97,4.91-10.97,10.97-10.97,10.97,4.91,10.97,10.97Zm-5.51-.85c0-3.53-2.86-6.38-6.38-6.38s-6.38,2.86-6.38,6.38,2.86,6.38,6.38,6.38,6.38-2.86,6.38-6.38Zm-84.1,31.49c-1.86,1.86-1.86,4.87,0,6.73.93.93,2.15,1.4,3.37,1.4s2.44-.47,3.37-1.39c6.97-6.97,18.31-6.97,25.28,0,1.86,1.86,4.87,1.86,6.73,0,1.86-1.86,1.86-4.87,0-6.73-10.68-10.68-28.06-10.68-38.75,0Zm-47.36-41.78c2.19-1.14,4.69-1.36,7.05-.62,1.43.45,2.96-.35,3.41-1.78.45-1.43-.35-2.96-1.78-3.41-3.74-1.18-7.72-.83-11.2.99-3.48,1.81-6.04,4.87-7.22,8.62-.45,1.43.35,2.96,1.78,3.41.27.09.55.13.82.13,1.16,0,2.23-.74,2.59-1.91.74-2.36,2.35-4.28,4.54-5.42Zm139.73,7.33c.27,0,.55-.04.82-.13,1.43-.45,2.23-1.98,1.78-3.41-2.43-7.72-10.69-12.04-18.41-9.6-1.43.45-2.23,1.98-1.78,3.41.45,1.43,1.98,2.23,3.41,1.78,4.87-1.53,10.06,1.18,11.59,6.05.37,1.16,1.44,1.91,2.59,1.91Zm-144.88,3.81c0-6.06,4.91-10.97,10.97-10.97s10.97,4.91,10.97,10.97-4.91,10.97-10.97,10.97-10.97-4.91-10.97-10.97Zm3.65-.85c0,3.53,2.86,6.38,6.38,6.38s6.38-2.86,6.38-6.38-2.86-6.38-6.38-6.38-6.38,2.86-6.38,6.38Zm18.69-157.72c.91.91,1.93,1.87,3.05,2.85.26.23.58.34.9.34.38,0,.76-.16,1.02-.46.49-.57.44-1.43-.13-1.92-1.07-.94-2.05-1.85-2.91-2.72-.53-.53-1.39-.54-1.92,0-.53.53-.54,1.39,0,1.92Zm16.89,12.95c.22.14.47.21.72.21.45,0,.9-.23,1.16-.64.4-.64.2-1.48-.43-1.87-2.41-1.51-4.75-3.08-6.95-4.67-.61-.44-1.46-.3-1.9.3-.44.61-.3,1.46.3,1.9,2.25,1.62,4.63,3.23,7.1,4.77Zm-25.94-22.7c2-2-4-2-7.43-5.42-3.43-3.43-3-8.98-4.99-6.98-1.99,2-.83,6.39,2.6,9.82,3.43,3.43,7.83,4.58,9.82,2.58Zm137.37,101.16h-78.49c-.09-.25-.18-.52-.27-.77-.24-.71-1.02-1.09-1.73-.84-.67.23-1.03.94-.86,1.61h-79.68l-10.81,12.8h185.72l-13.89-12.8Zm-148.6-93.53c4.09-4.1-4.71,1.02-6.7-.98s3.56-10.35-.53-6.25c-4.09,4.1-5.79,9.04-3.8,11.04,2,2,6.94.29,11.03-3.81Zm211.17,194.3h-29.32v14.55s-209.51.67-218.27-4.49c-7.39-4.36-5.84-98.04-5.84-98.04h-3.42v87.98h-30.68c-10.34,0-18.72,8.38-18.72,18.72h0c0,10.34,8.38,18.72,18.72,18.72h287.53c10.34,0,18.72-8.38,18.72-18.72h0c0-10.34-8.38-18.72-18.72-18.72Z"/><path class="cls-3" d="m274.16,260.36c.53.53.53,1.39,0,1.92-.27.27-.61.4-.96.4s-.7-.13-.96-.4c-8.3-8.3-21.8-8.3-30.09,0-.53.53-1.39.53-1.92,0-.53-.53-.53-1.39,0-1.92,9.36-9.36,24.58-9.36,33.94,0Zm-97.05-187.21c-1.35-1.35-1.61-3.53-.71-6.13.78-2.28,2.38-4.7,4.51-6.83,1.93-1.94,4.11-3.42,6.18-4.27-.55-.94-.97-1.91-1.23-2.86-.09-.35-.15-.68-.2-1.01l-5.62-1.9c-.71-.24-1.09-1.01-.85-1.72.24-.71,1.01-1.1,1.72-.85l4.93,1.66c.23-.71.6-1.34,1.11-1.86.52-.52,1.14-.89,1.85-1.12l-1.67-4.92c-.24-.71.14-1.48.85-1.73.71-.24,1.48.14,1.73.85l1.91,5.62c.33.05.67.11,1.02.2.95.25,1.92.68,2.87,1.22.84-2.08,2.33-4.27,4.26-6.19,4.77-4.78,10.34-6.42,12.96-3.82,1.35,1.35,1.61,3.53.71,6.13-.78,2.28-2.38,4.7-4.51,6.83-2.14,2.14-4.61,3.74-6.87,4.52.42,1.1.62,2.18.61,3.18.06,0,.12-.03.18-.03,1.36-.11,2.61.33,3.52,1.23.91.91,1.35,2.16,1.24,3.51-.1,1.28-.69,2.51-1.64,3.47-.96.96-2.19,1.54-3.46,1.65-.14.01-.28.02-.41.02-1.2,0-2.29-.44-3.1-1.25-.91-.91-1.35-2.15-1.24-3.51,0-.06.02-.11.03-.17-.02,0-.05,0-.07,0-.65,0-1.35-.09-2.07-.28-.34-.09-.69-.23-1.03-.36-.77,2.27-2.36,4.74-4.52,6.9-3.25,3.25-6.86,5.05-9.66,5.05-1.32,0-2.46-.4-3.3-1.23Zm24.19-11.45c-.5.5-.81,1.13-.86,1.76-.04.55.11,1.04.45,1.37.33.33.82.5,1.37.45.63-.05,1.26-.36,1.76-.86.5-.5.81-1.13.86-1.76.04-.55-.11-1.04-.45-1.37h0c-.3-.3-.71-.46-1.19-.46-.06,0-.12,0-.18,0-.63.05-1.26.36-1.76.86Zm-3.51-12.55c.31.26.62.52.91.81.82.82,1.52,1.69,2.1,2.58,1.95-.56,4.2-2.01,6.2-4,1.81-1.81,3.22-3.92,3.86-5.79.52-1.52.5-2.76-.06-3.32-1.11-1.11-5.11-.19-9.11,3.81-1.88,1.88-3.27,4.01-3.89,5.91Zm-9.29,3.22c.42,1.6,1.51,3.36,2.98,4.83,1.47,1.47,3.23,2.55,4.83,2.97,1.35.36,2.47.21,3.07-.39,1.25-1.26.5-4.81-2.6-7.9-1.47-1.47-3.23-2.55-4.83-2.97-.49-.13-.95-.19-1.36-.19-.73,0-1.32.2-1.7.58-.6.6-.74,1.72-.38,3.07Zm-9.46,18.86c1.11,1.1,5.11.19,9.11-3.81,1.98-1.98,3.44-4.28,3.99-6.22-.9-.58-1.78-1.27-2.58-2.07-.29-.29-.55-.61-.81-.91-1.88.62-4.04,2.04-5.9,3.9-1.81,1.81-3.22,3.92-3.86,5.79-.52,1.52-.5,2.76.06,3.32Zm136.18,140.83c-.72.23-1.12.99-.89,1.71.23.72.99,1.12,1.71.89,5.58-1.76,11.54,1.36,13.3,6.93.18.58.72.95,1.3.95.14,0,.27-.02.41-.06.72-.23,1.12-.99.89-1.71-2.2-7.01-9.7-10.92-16.71-8.71Zm-110.38,16.16c0,4.27-3.47,7.74-7.74,7.74s-7.74-3.47-7.74-7.74,3.47-7.74,7.74-7.74,7.74,3.47,7.74,7.74Zm-2.72,0c0-2.77-2.25-5.02-5.02-5.02s-5.02,2.25-5.02,5.02,2.25,5.02,5.02,5.02,5.02-2.25,5.02-5.02Zm-3.76-13.57c.71.23,1.48-.17,1.71-.89.23-.72-.17-1.48-.89-1.71-7.01-2.21-14.5,1.71-16.71,8.71-.23.72.17,1.48.89,1.71.14.04.27.06.41.06.58,0,1.11-.37,1.3-.95,1.75-5.58,7.72-8.69,13.3-6.93Zm221.99-58.56c-.06.49-.39.91-.85,1.09l-47.17,18.45v107.25c0,.75-.61,1.36-1.36,1.36h-227.53c-.75,0-1.36-.61-1.36-1.36v-107.25l-47.17-18.45c-.46-.18-.79-.6-.85-1.09-.06-.49.15-.98.55-1.27l38.34-27.86c.35-.25.8-.33,1.21-.2l42.74,13.42h160.61l42.74-13.42c.41-.13.86-.06,1.21.2l38.34,27.86c.4.29.61.78.55,1.27Zm-81.28,17.26h28.6l-28.6-28.53v28.53Zm-161.03,0h158.31v-30.45h-158.31v30.45Zm-23.23-11.91l19.32-19.27-40.15-12.6-35.78,25.99,44.89,17.56,11.71-11.68Zm-8.09,11.91h28.6v-28.53l-28.6,28.53Zm222.88,2.72h-224.81v105.46h224.81v-105.46Zm46.59-20.51l-35.78-25.99-40.14,12.6,31.03,30.95,44.89-17.56Zm-91.14,72.66c0,4.27-3.47,7.74-7.74,7.74s-7.74-3.47-7.74-7.74,3.47-7.74,7.74-7.74,7.74,3.47,7.74,7.74Zm-2.72,0c0-2.77-2.25-5.02-5.02-5.02s-5.02,2.25-5.02,5.02,2.25,5.02,5.02,5.02,5.02-2.25,5.02-5.02Z"/></svg>