<svg width="514" height="440" viewBox="0 0 514 440" fill="none" xmlns="http://www.w3.org/2000/svg">
<rect width="514" height="440" fill="white"/>
<mask id="mask0_6234_47348" style="mask-type:alpha" maskUnits="userSpaceOnUse" x="0" y="0" width="514" height="440">
<ellipse cx="257" cy="220" rx="257" ry="220" fill="url(#paint0_radial_6234_47348)"/>
</mask>
<g mask="url(#mask0_6234_47348)">
<mask id="path-2-inside-1_6234_47348" fill="white">
<path d="M57 52H107V108H57V52Z"/>
</mask>
<path d="M57 52H107V108H57V52Z" fill="white"/>
<path d="M107 108V109H108V108H107ZM106 52V108H108V52H106ZM107 107H57V109H107V107Z" fill="#D2D2D2" mask="url(#path-2-inside-1_6234_47348)"/>
<mask id="path-4-inside-2_6234_47348" fill="white">
<path d="M107 52H157V108H107V52Z"/>
</mask>
<path d="M107 52H157V108H107V52Z" fill="white"/>
<path d="M157 108V109H158V108H157ZM156 52V108H158V52H156ZM157 107H107V109H157V107Z" fill="#D2D2D2" mask="url(#path-4-inside-2_6234_47348)"/>
<mask id="path-6-inside-3_6234_47348" fill="white">
<path d="M157 52H207V108H157V52Z"/>
</mask>
<path d="M157 52H207V108H157V52Z" fill="#F8F8FD"/>
<path d="M207 108V109H208V108H207ZM206 52V108H208V52H206ZM207 107H157V109H207V107Z" fill="#D2D2D2" mask="url(#path-6-inside-3_6234_47348)"/>
<mask id="path-8-inside-4_6234_47348" fill="white">
<path d="M207 52H257V108H207V52Z"/>
</mask>
<path d="M207 52H257V108H207V52Z" fill="#F8F8FD"/>
<path d="M257 108V109H258V108H257ZM256 52V108H258V52H256ZM257 107H207V109H257V107Z" fill="#D2D2D2" mask="url(#path-8-inside-4_6234_47348)"/>
<mask id="path-10-inside-5_6234_47348" fill="white">
<path d="M257 52H307V108H257V52Z"/>
</mask>
<path d="M257 52H307V108H257V52Z" fill="white"/>
<path d="M307 108V109H308V108H307ZM306 52V108H308V52H306ZM307 107H257V109H307V107Z" fill="#D2D2D2" mask="url(#path-10-inside-5_6234_47348)"/>
<mask id="path-12-inside-6_6234_47348" fill="white">
<path d="M307 52H357V108H307V52Z"/>
</mask>
<path d="M307 52H357V108H307V52Z" fill="white"/>
<path d="M357 108V109H358V108H357ZM356 52V108H358V52H356ZM357 107H307V109H357V107Z" fill="#D2D2D2" mask="url(#path-12-inside-6_6234_47348)"/>
<mask id="path-14-inside-7_6234_47348" fill="white">
<path d="M357 52H407V108H357V52Z"/>
</mask>
<path d="M357 52H407V108H357V52Z" fill="white"/>
<path d="M407 108V109H408V108H407ZM406 52V108H408V52H406ZM407 107H357V109H407V107Z" fill="#D2D2D2" mask="url(#path-14-inside-7_6234_47348)"/>
<mask id="path-16-inside-8_6234_47348" fill="white">
<path d="M407 52H457V108H407V52Z"/>
</mask>
<path d="M407 52H457V108H407V52Z" fill="white"/>
<path d="M457 108V109H458V108H457ZM456 52V108H458V52H456ZM457 107H407V109H457V107Z" fill="#D2D2D2" mask="url(#path-16-inside-8_6234_47348)"/>
<mask id="path-18-inside-9_6234_47348" fill="white">
<path d="M7 164H57V220H7V164Z"/>
</mask>
<path d="M7 164H57V220H7V164Z" fill="white"/>
<path d="M57 220V221H58V220H57ZM56 164V220H58V164H56ZM57 219H7V221H57V219Z" fill="#D2D2D2" mask="url(#path-18-inside-9_6234_47348)"/>
<mask id="path-20-inside-10_6234_47348" fill="white">
<path d="M57 164H107V220H57V164Z"/>
</mask>
<path d="M57 164H107V220H57V164Z" fill="white"/>
<path d="M107 220V221H108V220H107ZM106 164V220H108V164H106ZM107 219H57V221H107V219Z" fill="#D2D2D2" mask="url(#path-20-inside-10_6234_47348)"/>
<mask id="path-22-inside-11_6234_47348" fill="white">
<path d="M107 164H157V220H107V164Z"/>
</mask>
<path d="M107 164H157V220H107V164Z" fill="white"/>
<path d="M157 220V221H158V220H157ZM156 164V220H158V164H156ZM157 219H107V221H157V219Z" fill="#D2D2D2" mask="url(#path-22-inside-11_6234_47348)"/>
<mask id="path-24-inside-12_6234_47348" fill="white">
<path d="M157 164H207V220H157V164Z"/>
</mask>
<path d="M157 164H207V220H157V164Z" fill="#F8F8FD"/>
<path d="M207 220V221H208V220H207ZM206 164V220H208V164H206ZM207 219H157V221H207V219Z" fill="#D2D2D2" mask="url(#path-24-inside-12_6234_47348)"/>
<mask id="path-26-inside-13_6234_47348" fill="white">
<path d="M207 164H257V220H207V164Z"/>
</mask>
<path d="M207 164H257V220H207V164Z" fill="#F8F8FD"/>
<path d="M257 220V221H258V220H257ZM256 164V220H258V164H256ZM257 219H207V221H257V219Z" fill="#D2D2D2" mask="url(#path-26-inside-13_6234_47348)"/>
<mask id="path-28-inside-14_6234_47348" fill="white">
<path d="M257 164H307V220H257V164Z"/>
</mask>
<path d="M257 164H307V220H257V164Z" fill="white"/>
<path d="M307 220V221H308V220H307ZM306 164V220H308V164H306ZM307 219H257V221H307V219Z" fill="#D2D2D2" mask="url(#path-28-inside-14_6234_47348)"/>
<mask id="path-30-inside-15_6234_47348" fill="white">
<path d="M307 164H357V220H307V164Z"/>
</mask>
<path d="M307 164H357V220H307V164Z" fill="white"/>
<path d="M357 220V221H358V220H357ZM356 164V220H358V164H356ZM357 219H307V221H357V219Z" fill="#D2D2D2" mask="url(#path-30-inside-15_6234_47348)"/>
<mask id="path-32-inside-16_6234_47348" fill="white">
<path d="M357 164H407V220H357V164Z"/>
</mask>
<path d="M357 164H407V220H357V164Z" fill="white"/>
<path d="M407 220V221H408V220H407ZM406 164V220H408V164H406ZM407 219H357V221H407V219Z" fill="#D2D2D2" mask="url(#path-32-inside-16_6234_47348)"/>
<mask id="path-34-inside-17_6234_47348" fill="white">
<path d="M407 164H457V220H407V164Z"/>
</mask>
<path d="M407 164H457V220H407V164Z" fill="white"/>
<path d="M457 220V221H458V220H457ZM456 164V220H458V164H456ZM457 219H407V221H457V219Z" fill="#D2D2D2" mask="url(#path-34-inside-17_6234_47348)"/>
<mask id="path-36-inside-18_6234_47348" fill="white">
<path d="M457 164H507V220H457V164Z"/>
</mask>
<path d="M457 164H507V220H457V164Z" fill="white"/>
<path d="M507 220V221H508V220H507ZM506 164V220H508V164H506ZM507 219H457V221H507V219Z" fill="#D2D2D2" mask="url(#path-36-inside-18_6234_47348)"/>
<mask id="path-38-inside-19_6234_47348" fill="white">
<path d="M7 276H57V332H7V276Z"/>
</mask>
<path d="M7 276H57V332H7V276Z" fill="white"/>
<path d="M57 332V333H58V332H57ZM56 276V332H58V276H56ZM57 331H7V333H57V331Z" fill="#D2D2D2" mask="url(#path-38-inside-19_6234_47348)"/>
<mask id="path-40-inside-20_6234_47348" fill="white">
<path d="M57 276H107V332H57V276Z"/>
</mask>
<path d="M57 276H107V332H57V276Z" fill="white"/>
<path d="M107 332V333H108V332H107ZM106 276V332H108V276H106ZM107 331H57V333H107V331Z" fill="#D2D2D2" mask="url(#path-40-inside-20_6234_47348)"/>
<mask id="path-42-inside-21_6234_47348" fill="white">
<path d="M107 276H157V332H107V276Z"/>
</mask>
<path d="M107 276H157V332H107V276Z" fill="white"/>
<path d="M157 332V333H158V332H157ZM156 276V332H158V276H156ZM157 331H107V333H157V331Z" fill="#D2D2D2" mask="url(#path-42-inside-21_6234_47348)"/>
<mask id="path-44-inside-22_6234_47348" fill="white">
<path d="M157 276H207V332H157V276Z"/>
</mask>
<path d="M157 276H207V332H157V276Z" fill="#F8F8FD"/>
<path d="M207 332V333H208V332H207ZM206 276V332H208V276H206ZM207 331H157V333H207V331Z" fill="#D2D2D2" mask="url(#path-44-inside-22_6234_47348)"/>
<mask id="path-46-inside-23_6234_47348" fill="white">
<path d="M207 276H257V332H207V276Z"/>
</mask>
<path d="M207 276H257V332H207V276Z" fill="#F8F8FD"/>
<path d="M257 332V333H258V332H257ZM256 276V332H258V276H256ZM257 331H207V333H257V331Z" fill="#D2D2D2" mask="url(#path-46-inside-23_6234_47348)"/>
<mask id="path-48-inside-24_6234_47348" fill="white">
<path d="M107 388H157V444H107V388Z"/>
</mask>
<path d="M107 388H157V444H107V388Z" fill="white"/>
<path d="M157 444V445H158V444H157ZM156 388V444H158V388H156ZM157 443H107V445H157V443Z" fill="#D2D2D2" mask="url(#path-48-inside-24_6234_47348)"/>
<mask id="path-50-inside-25_6234_47348" fill="white">
<path d="M157 388H207V444H157V388Z"/>
</mask>
<path d="M157 388H207V444H157V388Z" fill="#F8F8FD"/>
<path d="M207 444V445H208V444H207ZM206 388V444H208V388H206ZM207 443H157V445H207V443Z" fill="#D2D2D2" mask="url(#path-50-inside-25_6234_47348)"/>
<mask id="path-52-inside-26_6234_47348" fill="white">
<path d="M207 388H257V444H207V388Z"/>
</mask>
<path d="M207 388H257V444H207V388Z" fill="#F8F8FD"/>
<path d="M257 444V445H258V444H257ZM256 388V444H258V388H256ZM257 443H207V445H257V443Z" fill="#D2D2D2" mask="url(#path-52-inside-26_6234_47348)"/>
<mask id="path-54-inside-27_6234_47348" fill="white">
<path d="M257 276H307V332H257V276Z"/>
</mask>
<path d="M257 276H307V332H257V276Z" fill="white"/>
<path d="M307 332V333H308V332H307ZM306 276V332H308V276H306ZM307 331H257V333H307V331Z" fill="#D2D2D2" mask="url(#path-54-inside-27_6234_47348)"/>
<mask id="path-56-inside-28_6234_47348" fill="white">
<path d="M307 276H357V332H307V276Z"/>
</mask>
<path d="M307 276H357V332H307V276Z" fill="white"/>
<path d="M357 332V333H358V332H357ZM356 276V332H358V276H356ZM357 331H307V333H357V331Z" fill="#D2D2D2" mask="url(#path-56-inside-28_6234_47348)"/>
<mask id="path-58-inside-29_6234_47348" fill="white">
<path d="M357 276H407V332H357V276Z"/>
</mask>
<path d="M357 276H407V332H357V276Z" fill="white"/>
<path d="M407 332V333H408V332H407ZM406 276V332H408V276H406ZM407 331H357V333H407V331Z" fill="#D2D2D2" mask="url(#path-58-inside-29_6234_47348)"/>
<mask id="path-60-inside-30_6234_47348" fill="white">
<path d="M407 276H457V332H407V276Z"/>
</mask>
<path d="M407 276H457V332H407V276Z" fill="white"/>
<path d="M457 332V333H458V332H457ZM456 276V332H458V276H456ZM457 331H407V333H457V331Z" fill="#D2D2D2" mask="url(#path-60-inside-30_6234_47348)"/>
<mask id="path-62-inside-31_6234_47348" fill="white">
<path d="M457 276H507V332H457V276Z"/>
</mask>
<path d="M457 276H507V332H457V276Z" fill="white"/>
<path d="M507 332V333H508V332H507ZM506 276V332H508V276H506ZM507 331H457V333H507V331Z" fill="#D2D2D2" mask="url(#path-62-inside-31_6234_47348)"/>
<mask id="path-64-inside-32_6234_47348" fill="white">
<path d="M257 388H307V444H257V388Z"/>
</mask>
<path d="M257 388H307V444H257V388Z" fill="white"/>
<path d="M307 444V445H308V444H307ZM306 388V444H308V388H306ZM307 443H257V445H307V443Z" fill="#D2D2D2" mask="url(#path-64-inside-32_6234_47348)"/>
<mask id="path-66-inside-33_6234_47348" fill="white">
<path d="M307 388H357V444H307V388Z"/>
</mask>
<path d="M307 388H357V444H307V388Z" fill="white"/>
<path d="M357 444V445H358V444H357ZM356 388V444H358V388H356ZM357 443H307V445H357V443Z" fill="#D2D2D2" mask="url(#path-66-inside-33_6234_47348)"/>
<mask id="path-68-inside-34_6234_47348" fill="white">
<path d="M357 388H407V444H357V388Z"/>
</mask>
<path d="M357 388H407V444H357V388Z" fill="white"/>
<path d="M407 444V445H408V444H407ZM406 388V444H408V388H406ZM407 443H357V445H407V443Z" fill="#D2D2D2" mask="url(#path-68-inside-34_6234_47348)"/>
<mask id="path-70-inside-35_6234_47348" fill="white">
<path d="M107 -4H157V52H107V-4Z"/>
</mask>
<path d="M107 -4H157V52H107V-4Z" fill="white"/>
<path d="M157 52V53H158V52H157ZM156 -4V52H158V-4H156ZM157 51H107V53H157V51Z" fill="#D2D2D2" mask="url(#path-70-inside-35_6234_47348)"/>
<mask id="path-72-inside-36_6234_47348" fill="white">
<path d="M157 -4H207V52H157V-4Z"/>
</mask>
<path d="M157 -4H207V52H157V-4Z" fill="#F8F8FD"/>
<path d="M207 52V53H208V52H207ZM206 -4V52H208V-4H206ZM207 51H157V53H207V51Z" fill="#D2D2D2" mask="url(#path-72-inside-36_6234_47348)"/>
<mask id="path-74-inside-37_6234_47348" fill="white">
<path d="M207 -4H257V52H207V-4Z"/>
</mask>
<path d="M207 -4H257V52H207V-4Z" fill="#F8F8FD"/>
<path d="M257 52V53H258V52H257ZM256 -4V52H258V-4H256ZM257 51H207V53H257V51Z" fill="#D2D2D2" mask="url(#path-74-inside-37_6234_47348)"/>
<mask id="path-76-inside-38_6234_47348" fill="white">
<path d="M257 -4H307V52H257V-4Z"/>
</mask>
<path d="M257 -4H307V52H257V-4Z" fill="white"/>
<path d="M307 52V53H308V52H307ZM306 -4V52H308V-4H306ZM307 51H257V53H307V51Z" fill="#D2D2D2" mask="url(#path-76-inside-38_6234_47348)"/>
<mask id="path-78-inside-39_6234_47348" fill="white">
<path d="M307 -4H357V52H307V-4Z"/>
</mask>
<path d="M307 -4H357V52H307V-4Z" fill="white"/>
<path d="M357 52V53H358V52H357ZM356 -4V52H358V-4H356ZM357 51H307V53H357V51Z" fill="#D2D2D2" mask="url(#path-78-inside-39_6234_47348)"/>
<mask id="path-80-inside-40_6234_47348" fill="white">
<path d="M357 -4H407V52H357V-4Z"/>
</mask>
<path d="M357 -4H407V52H357V-4Z" fill="white"/>
<path d="M407 52V53H408V52H407ZM406 -4V52H408V-4H406ZM407 51H357V53H407V51Z" fill="#D2D2D2" mask="url(#path-80-inside-40_6234_47348)"/>
<mask id="path-82-inside-41_6234_47348" fill="white">
<path d="M7 108H57V164H7V108Z"/>
</mask>
<path d="M7 108H57V164H7V108Z" fill="white"/>
<path d="M57 164V165H58V164H57ZM56 108V164H58V108H56ZM57 163H7V165H57V163Z" fill="#D2D2D2" mask="url(#path-82-inside-41_6234_47348)"/>
<mask id="path-84-inside-42_6234_47348" fill="white">
<path d="M57 108H107V164H57V108Z"/>
</mask>
<path d="M57 108H107V164H57V108Z" fill="white"/>
<path d="M107 164V165H108V164H107ZM106 108V164H108V108H106ZM107 163H57V165H107V163Z" fill="#D2D2D2" mask="url(#path-84-inside-42_6234_47348)"/>
<mask id="path-86-inside-43_6234_47348" fill="white">
<path d="M107 108H157V164H107V108Z"/>
</mask>
<path d="M107 108H157V164H107V108Z" fill="white"/>
<path d="M157 164V165H158V164H157ZM156 108V164H158V108H156ZM157 163H107V165H157V163Z" fill="#D2D2D2" mask="url(#path-86-inside-43_6234_47348)"/>
<mask id="path-88-inside-44_6234_47348" fill="white">
<path d="M157 108H207V164H157V108Z"/>
</mask>
<path d="M157 108H207V164H157V108Z" fill="#F8F8FD"/>
<path d="M207 164V165H208V164H207ZM206 108V164H208V108H206ZM207 163H157V165H207V163Z" fill="#D2D2D2" mask="url(#path-88-inside-44_6234_47348)"/>
<mask id="path-90-inside-45_6234_47348" fill="white">
<path d="M207 108H257V164H207V108Z"/>
</mask>
<path d="M207 108H257V164H207V108Z" fill="#F8F8FD"/>
<path d="M257 164V165H258V164H257ZM256 108V164H258V108H256ZM257 163H207V165H257V163Z" fill="#D2D2D2" mask="url(#path-90-inside-45_6234_47348)"/>
<mask id="path-92-inside-46_6234_47348" fill="white">
<path d="M257 108H307V164H257V108Z"/>
</mask>
<path d="M257 108H307V164H257V108Z" fill="white"/>
<path d="M307 164V165H308V164H307ZM306 108V164H308V108H306ZM307 163H257V165H307V163Z" fill="#D2D2D2" mask="url(#path-92-inside-46_6234_47348)"/>
<mask id="path-94-inside-47_6234_47348" fill="white">
<path d="M307 108H357V164H307V108Z"/>
</mask>
<path d="M307 108H357V164H307V108Z" fill="white"/>
<path d="M357 164V165H358V164H357ZM356 108V164H358V108H356ZM357 163H307V165H357V163Z" fill="#D2D2D2" mask="url(#path-94-inside-47_6234_47348)"/>
<mask id="path-96-inside-48_6234_47348" fill="white">
<path d="M357 108H407V164H357V108Z"/>
</mask>
<path d="M357 108H407V164H357V108Z" fill="white"/>
<path d="M407 164V165H408V164H407ZM406 108V164H408V108H406ZM407 163H357V165H407V163Z" fill="#D2D2D2" mask="url(#path-96-inside-48_6234_47348)"/>
<mask id="path-98-inside-49_6234_47348" fill="white">
<path d="M407 108H457V164H407V108Z"/>
</mask>
<path d="M407 108H457V164H407V108Z" fill="white"/>
<path d="M457 164V165H458V164H457ZM456 108V164H458V108H456ZM457 163H407V165H457V163Z" fill="#D2D2D2" mask="url(#path-98-inside-49_6234_47348)"/>
<mask id="path-100-inside-50_6234_47348" fill="white">
<path d="M457 108H507V164H457V108Z"/>
</mask>
<path d="M457 108H507V164H457V108Z" fill="white"/>
<path d="M507 164V165H508V164H507ZM506 108V164H508V108H506ZM507 163H457V165H507V163Z" fill="#D2D2D2" mask="url(#path-100-inside-50_6234_47348)"/>
<mask id="path-102-inside-51_6234_47348" fill="white">
<path d="M7 220H57V276H7V220Z"/>
</mask>
<path d="M7 220H57V276H7V220Z" fill="white"/>
<path d="M57 276V277H58V276H57ZM56 220V276H58V220H56ZM57 275H7V277H57V275Z" fill="#D2D2D2" mask="url(#path-102-inside-51_6234_47348)"/>
<mask id="path-104-inside-52_6234_47348" fill="white">
<path d="M57 220H107V276H57V220Z"/>
</mask>
<path d="M57 220H107V276H57V220Z" fill="white"/>
<path d="M107 276V277H108V276H107ZM106 220V276H108V220H106ZM107 275H57V277H107V275Z" fill="#D2D2D2" mask="url(#path-104-inside-52_6234_47348)"/>
<mask id="path-106-inside-53_6234_47348" fill="white">
<path d="M107 220H157V276H107V220Z"/>
</mask>
<path d="M107 220H157V276H107V220Z" fill="white"/>
<path d="M157 276V277H158V276H157ZM156 220V276H158V220H156ZM157 275H107V277H157V275Z" fill="#D2D2D2" mask="url(#path-106-inside-53_6234_47348)"/>
<mask id="path-108-inside-54_6234_47348" fill="white">
<path d="M157 220H207V276H157V220Z"/>
</mask>
<path d="M157 220H207V276H157V220Z" fill="#F8F8FD"/>
<path d="M207 276V277H208V276H207ZM206 220V276H208V220H206ZM207 275H157V277H207V275Z" fill="#D2D2D2" mask="url(#path-108-inside-54_6234_47348)"/>
<mask id="path-110-inside-55_6234_47348" fill="white">
<path d="M207 220H257V276H207V220Z"/>
</mask>
<path d="M207 220H257V276H207V220Z" fill="#F8F8FD"/>
<path d="M257 276V277H258V276H257ZM256 220V276H258V220H256ZM257 275H207V277H257V275Z" fill="#D2D2D2" mask="url(#path-110-inside-55_6234_47348)"/>
<mask id="path-112-inside-56_6234_47348" fill="white">
<path d="M57 332H107V388H57V332Z"/>
</mask>
<path d="M57 332H107V388H57V332Z" fill="white"/>
<path d="M107 388V389H108V388H107ZM106 332V388H108V332H106ZM107 387H57V389H107V387Z" fill="#D2D2D2" mask="url(#path-112-inside-56_6234_47348)"/>
<mask id="path-114-inside-57_6234_47348" fill="white">
<path d="M107 332H157V388H107V332Z"/>
</mask>
<path d="M107 332H157V388H107V332Z" fill="white"/>
<path d="M157 388V389H158V388H157ZM156 332V388H158V332H156ZM157 387H107V389H157V387Z" fill="#D2D2D2" mask="url(#path-114-inside-57_6234_47348)"/>
<mask id="path-116-inside-58_6234_47348" fill="white">
<path d="M157 332H207V388H157V332Z"/>
</mask>
<path d="M157 332H207V388H157V332Z" fill="#F8F8FD"/>
<path d="M207 388V389H208V388H207ZM206 332V388H208V332H206ZM207 387H157V389H207V387Z" fill="#D2D2D2" mask="url(#path-116-inside-58_6234_47348)"/>
<mask id="path-118-inside-59_6234_47348" fill="white">
<path d="M207 332H257V388H207V332Z"/>
</mask>
<path d="M207 332H257V388H207V332Z" fill="#F8F8FD"/>
<path d="M257 388V389H258V388H257ZM256 332V388H258V332H256ZM257 387H207V389H257V387Z" fill="#D2D2D2" mask="url(#path-118-inside-59_6234_47348)"/>
<mask id="path-120-inside-60_6234_47348" fill="white">
<path d="M257 220H307V276H257V220Z"/>
</mask>
<path d="M257 220H307V276H257V220Z" fill="white"/>
<path d="M307 276V277H308V276H307ZM306 220V276H308V220H306ZM307 275H257V277H307V275Z" fill="#D2D2D2" mask="url(#path-120-inside-60_6234_47348)"/>
<mask id="path-122-inside-61_6234_47348" fill="white">
<path d="M307 220H357V276H307V220Z"/>
</mask>
<path d="M307 220H357V276H307V220Z" fill="white"/>
<path d="M357 276V277H358V276H357ZM356 220V276H358V220H356ZM357 275H307V277H357V275Z" fill="#D2D2D2" mask="url(#path-122-inside-61_6234_47348)"/>
<mask id="path-124-inside-62_6234_47348" fill="white">
<path d="M357 220H407V276H357V220Z"/>
</mask>
<path d="M357 220H407V276H357V220Z" fill="white"/>
<path d="M407 276V277H408V276H407ZM406 220V276H408V220H406ZM407 275H357V277H407V275Z" fill="#D2D2D2" mask="url(#path-124-inside-62_6234_47348)"/>
<mask id="path-126-inside-63_6234_47348" fill="white">
<path d="M407 220H457V276H407V220Z"/>
</mask>
<path d="M407 220H457V276H407V220Z" fill="white"/>
<path d="M457 276V277H458V276H457ZM456 220V276H458V220H456ZM457 275H407V277H457V275Z" fill="#D2D2D2" mask="url(#path-126-inside-63_6234_47348)"/>
<mask id="path-128-inside-64_6234_47348" fill="white">
<path d="M457 220H507V276H457V220Z"/>
</mask>
<path d="M457 220H507V276H457V220Z" fill="white"/>
<path d="M507 276V277H508V276H507ZM506 220V276H508V220H506ZM507 275H457V277H507V275Z" fill="#D2D2D2" mask="url(#path-128-inside-64_6234_47348)"/>
<mask id="path-130-inside-65_6234_47348" fill="white">
<path d="M257 332H307V388H257V332Z"/>
</mask>
<path d="M257 332H307V388H257V332Z" fill="white"/>
<path d="M307 388V389H308V388H307ZM306 332V388H308V332H306ZM307 387H257V389H307V387Z" fill="#D2D2D2" mask="url(#path-130-inside-65_6234_47348)"/>
<mask id="path-132-inside-66_6234_47348" fill="white">
<path d="M307 332H357V388H307V332Z"/>
</mask>
<path d="M307 332H357V388H307V332Z" fill="white"/>
<path d="M357 388V389H358V388H357ZM356 332V388H358V332H356ZM357 387H307V389H357V387Z" fill="#D2D2D2" mask="url(#path-132-inside-66_6234_47348)"/>
<mask id="path-134-inside-67_6234_47348" fill="white">
<path d="M357 332H407V388H357V332Z"/>
</mask>
<path d="M357 332H407V388H357V332Z" fill="white"/>
<path d="M407 388V389H408V388H407ZM406 332V388H408V332H406ZM407 387H357V389H407V387Z" fill="#D2D2D2" mask="url(#path-134-inside-67_6234_47348)"/>
<mask id="path-136-inside-68_6234_47348" fill="white">
<path d="M407 332H457V388H407V332Z"/>
</mask>
<path d="M407 332H457V388H407V332Z" fill="white"/>
<path d="M457 388V389H458V388H457ZM456 332V388H458V332H456ZM457 387H407V389H457V387Z" fill="#D2D2D2" mask="url(#path-136-inside-68_6234_47348)"/>
</g>
<g clip-path="url(#clip0_6234_47348)">
<rect x="94" y="261" width="325" height="39" rx="19.5" fill="#DBF0FD"/>
<path d="M418.641 154.666L370.65 173.456V281.653H143.35V173.456L95.3594 154.666L133.66 126.801L176.567 140.284H337.433L380.341 126.801L418.641 154.666ZM188.976 67.1104C191.572 64.5116 193.203 61.5727 193.529 59.2596C196.152 60.7019 198.775 60.8924 200.189 59.4773C201.602 58.0623 201.398 55.4363 199.958 52.8103C202.268 52.4702 205.204 50.8374 207.8 48.2386C211.891 44.1432 213.59 39.1905 211.592 37.204C209.594 35.2039 204.66 36.9183 200.569 41.0137C198.15 43.4356 196.587 46.1433 196.098 48.3747C192.972 45.9936 189.492 45.3677 187.766 47.0821C186.04 48.7965 186.679 52.2933 189.071 55.4091C186.842 55.8989 184.137 57.4772 181.732 59.8855C177.641 63.981 175.942 68.9336 177.94 70.9201C179.938 72.9203 184.871 71.2059 188.962 67.1104H188.976ZM199.781 64.5388C201.059 65.8178 203.328 65.6409 204.837 64.1307C206.346 62.6204 206.522 60.3617 205.245 59.0692C203.967 57.7902 201.697 57.9671 200.189 59.4773C198.68 60.9876 198.503 63.2463 199.781 64.5388Z" fill="white"/>
<path d="M351.31 173.457H165.762L176.553 160.653H256.157C255.994 159.973 256.347 159.265 257.013 159.034C257.72 158.789 258.495 159.17 258.74 159.878C258.821 160.136 258.916 160.395 259.011 160.653H337.419L351.296 173.457H351.31ZM152.605 271.503C145.225 267.149 146.775 173.457 146.775 173.457H143.363V281.653H370.664V276.007C370.664 276.007 161.372 276.687 152.619 271.517L152.605 271.503ZM197.891 238.794C203.94 238.794 208.846 233.882 208.846 227.827C208.846 221.772 203.94 216.86 197.891 216.86C191.843 216.86 186.937 221.772 186.937 227.827C186.937 233.882 191.843 238.794 197.891 238.794ZM317.97 216.847C311.922 216.847 307.016 221.759 307.016 227.813C307.016 233.868 311.922 238.78 317.97 238.78C324.018 238.78 328.925 233.868 328.925 227.813C328.925 221.759 324.018 216.847 317.97 216.847ZM331.67 224.004C331.942 224.004 332.214 223.963 332.486 223.881C333.913 223.432 334.715 221.908 334.266 220.466C331.833 212.738 323.583 208.425 315.864 210.86C314.437 211.309 313.635 212.833 314.083 214.275C314.532 215.704 316.054 216.507 317.495 216.058C322.36 214.534 327.552 217.241 329.074 222.099C329.441 223.255 330.515 224.004 331.67 224.004ZM192.088 216.67C194.276 215.527 196.777 215.309 199.128 216.044C200.555 216.493 202.091 215.704 202.54 214.262C202.988 212.819 202.2 211.296 200.759 210.847C197.022 209.663 193.053 210.017 189.574 211.84C186.094 213.649 183.539 216.711 182.357 220.452C181.908 221.881 182.696 223.419 184.137 223.868C184.409 223.949 184.681 223.99 184.953 223.99C186.108 223.99 187.182 223.242 187.548 222.085C188.282 219.731 189.9 217.799 192.088 216.656V216.67ZM239.399 258.455C237.537 260.319 237.537 263.326 239.399 265.19C240.323 266.115 241.547 266.591 242.77 266.591C243.993 266.591 245.203 266.128 246.127 265.203C253.086 258.237 264.421 258.237 271.379 265.203C273.241 267.067 276.245 267.067 278.107 265.203C279.969 263.339 279.969 260.332 278.107 258.468C267.438 247.787 250.068 247.787 239.399 258.468V258.455ZM209.24 69.2333C210.151 70.1449 211.17 71.111 212.285 72.0906C212.543 72.3219 212.855 72.4308 213.182 72.4308C213.562 72.4308 213.943 72.2675 214.201 71.9682C214.69 71.3967 214.636 70.5395 214.079 70.0497C213.005 69.1109 212.026 68.1993 211.17 67.3285C210.64 66.7978 209.784 66.7842 209.254 67.3285C208.724 67.8727 208.71 68.7163 209.254 69.2469L209.24 69.2333ZM251.319 71.3015C251.754 71.3015 252.189 71.0974 252.447 70.7028C254.023 68.3625 255.885 66.4713 257.951 65.0698C258.576 64.648 258.74 63.8045 258.318 63.1786C257.897 62.5527 257.054 62.3894 256.429 62.8112C254.064 64.4031 251.971 66.5529 250.191 69.1789C249.769 69.8048 249.932 70.6484 250.558 71.0702C250.789 71.2334 251.06 71.3015 251.319 71.3015ZM248.804 136.244C248.954 136.856 249.511 137.264 250.123 137.264C250.231 137.264 250.34 137.264 250.462 137.223C251.196 137.033 251.631 136.298 251.441 135.577C250.734 132.801 250.095 130.039 249.525 127.386C249.362 126.651 248.641 126.189 247.907 126.338C247.173 126.502 246.711 127.223 246.861 127.958C247.432 130.652 248.084 133.427 248.791 136.244H248.804ZM265.182 62.3486C265.821 62.267 266.459 62.2534 267.125 62.2261C269.069 62.2261 270.999 62.5663 272.874 63.2466C273.024 63.301 273.187 63.3282 273.337 63.3282C273.894 63.3282 274.41 62.9881 274.614 62.4302C274.872 61.7227 274.505 60.9472 273.799 60.6886C271.638 59.9131 269.395 59.5049 267.139 59.5049C266.378 59.5049 265.617 59.5457 264.869 59.641C264.122 59.7362 263.592 60.4029 263.687 61.1513C263.782 61.8996 264.448 62.4302 265.195 62.335L265.182 62.3486ZM283.217 74.118C283.38 74.7302 283.924 75.1248 284.522 75.1248C284.644 75.1248 284.753 75.1112 284.876 75.0704C285.596 74.8799 286.031 74.1316 285.827 73.3968C285.039 70.4987 283.489 67.7775 281.328 65.5461C280.812 65.0018 279.942 64.9882 279.412 65.5188C278.868 66.0359 278.855 66.9067 279.385 67.4373C281.219 69.3422 282.551 71.6416 283.204 74.1043L283.217 74.118ZM284.889 80.7986C284.155 80.6353 283.435 81.1115 283.272 81.8327C282.66 84.6764 281.6 87.0574 280.119 88.9215C279.656 89.5065 279.752 90.3637 280.336 90.8263C280.581 91.0304 280.88 91.1257 281.179 91.1257C281.573 91.1257 281.981 90.9488 282.239 90.6087C283.978 88.4181 285.215 85.656 285.922 82.4041C286.085 81.6694 285.609 80.9483 284.889 80.785V80.7986ZM273.894 93.2346C271.651 94.0102 268.987 94.364 266.038 94.2823C265.29 94.2551 264.665 94.8538 264.638 95.6021C264.611 96.3505 265.209 96.9763 265.956 97.0036C266.242 97.0036 266.527 97.0036 266.813 97.0036C269.762 97.0036 272.439 96.5954 274.764 95.7926C275.47 95.5477 275.851 94.7721 275.606 94.0646C275.362 93.3571 274.587 92.9761 273.88 93.221L273.894 93.2346ZM248.247 91.738C248.002 92.4455 248.369 93.221 249.076 93.4796C251.944 94.4864 254.73 95.3028 257.34 95.8742C257.435 95.9015 257.543 95.9015 257.639 95.9015C258.264 95.9015 258.821 95.4661 258.971 94.8402C259.134 94.1054 258.672 93.3843 257.938 93.221C255.423 92.6632 252.746 91.8876 249.987 90.908C249.28 90.6631 248.505 91.0304 248.247 91.738ZM233.473 86.4588C236.029 87.8466 238.611 89.1256 241.139 90.2549C241.316 90.3365 241.506 90.3773 241.696 90.3773C242.213 90.3773 242.702 90.078 242.933 89.5746C243.245 88.8943 242.933 88.0779 242.253 87.7786C239.793 86.6629 237.265 85.4111 234.765 84.0641C234.099 83.7103 233.283 83.9552 232.93 84.6219C232.576 85.2886 232.821 86.105 233.487 86.4588H233.473ZM244.741 103.916C244.741 103.916 244.781 103.916 244.808 103.916C245.556 103.888 246.14 103.249 246.1 102.5C246.032 100.949 245.991 99.4255 245.991 97.9696C245.991 96.6634 246.018 95.398 246.072 94.1599C246.1 93.4115 245.529 92.772 244.768 92.7448C244.047 92.7312 243.381 93.2891 243.354 94.051C243.3 95.3164 243.273 96.6226 243.273 97.9696C243.273 99.4663 243.313 101.031 243.381 102.623C243.409 103.358 244.02 103.929 244.741 103.929V103.916ZM226.093 82.1728C226.311 82.3089 226.569 82.3769 226.814 82.3769C227.262 82.3769 227.711 82.1456 227.969 81.7374C228.363 81.0979 228.173 80.2543 227.534 79.8598C225.128 78.3495 222.791 76.7848 220.589 75.1928C219.977 74.7574 219.135 74.8935 218.686 75.4922C218.251 76.1045 218.387 76.948 218.985 77.397C221.228 79.0162 223.62 80.6217 226.08 82.1728H226.093ZM253.466 152.571C253.643 153.156 254.186 153.524 254.757 153.524C254.893 153.524 255.029 153.496 255.165 153.456C255.885 153.224 256.279 152.462 256.048 151.755C255.192 149.034 254.377 146.326 253.616 143.686C253.412 142.965 252.651 142.543 251.93 142.748C251.21 142.952 250.789 143.714 250.992 144.435C251.754 147.088 252.583 149.823 253.453 152.571H253.466ZM245.339 87.0302C245.42 87.0302 245.488 87.0438 245.556 87.0438C246.208 87.0438 246.779 86.5676 246.902 85.9009C247.377 83.03 248.043 80.3496 248.886 77.9413C249.13 77.2338 248.764 76.4582 248.057 76.2133C247.35 75.9684 246.575 76.3358 246.331 77.0433C245.434 79.6012 244.741 82.4313 244.238 85.4655C244.115 86.2002 244.618 86.9078 245.352 87.0302H245.339ZM247.934 119.127C247.459 116.297 247.065 113.494 246.766 110.827C246.684 110.079 246.004 109.535 245.257 109.63C244.509 109.712 243.979 110.392 244.061 111.14C244.374 113.862 244.768 116.705 245.257 119.59C245.366 120.257 245.95 120.719 246.603 120.719C246.67 120.719 246.752 120.719 246.834 120.706C247.567 120.583 248.07 119.876 247.948 119.141L247.934 119.127ZM188.948 67.0972C193.039 63.0017 184.246 68.1176 182.248 66.1175C180.25 64.1174 185.809 55.7768 181.718 59.8723C177.627 63.9677 175.928 68.9204 177.926 70.9069C179.924 72.907 184.857 71.1926 188.948 67.0972ZM207.772 48.2254C211.863 44.1299 203.097 49.586 201.099 47.5859C199.101 45.5858 204.633 36.905 200.542 41.0005C196.451 45.096 195.676 48.5655 197.674 50.5656C199.672 52.5657 203.681 52.3344 207.772 48.2254ZM200.161 59.4641C202.159 57.464 196.165 57.464 192.74 54.0352C189.315 50.6065 189.75 45.0551 187.752 47.0552C185.754 49.0554 186.923 53.4502 190.348 56.8789C193.773 60.3077 198.163 61.4642 200.161 59.4641Z" fill="#DBF0FD"/>
<path d="M196.953 233.351C200.474 233.351 203.328 230.494 203.328 226.97C203.328 223.445 200.474 220.588 196.953 220.588C193.433 220.588 190.579 223.445 190.579 226.97C190.579 230.494 193.433 233.351 196.953 233.351Z" fill="white"/>
<path d="M317.046 233.351C320.567 233.351 323.42 230.494 323.42 226.97C323.42 223.445 320.567 220.588 317.046 220.588C313.526 220.588 310.672 223.445 310.672 226.97C310.672 230.494 313.526 233.351 317.046 233.351Z" fill="white"/>
<path d="M196.954 234.711C192.686 234.711 189.221 231.242 189.221 226.969C189.221 222.697 192.686 219.228 196.954 219.228C201.222 219.228 204.688 222.697 204.688 226.969C204.688 231.242 201.222 234.711 196.954 234.711ZM196.954 221.949C194.182 221.949 191.939 224.207 191.939 226.969C191.939 229.732 194.195 231.99 196.954 231.99C199.713 231.99 201.969 229.732 201.969 226.969C201.969 224.207 199.713 221.949 196.954 221.949Z" fill="#1C222F"/>
<path d="M317.046 234.711C312.778 234.711 309.312 231.242 309.312 226.969C309.312 222.697 312.778 219.228 317.046 219.228C321.314 219.228 324.779 222.697 324.779 226.969C324.779 231.242 321.314 234.711 317.046 234.711ZM317.046 221.949C314.273 221.949 312.031 224.207 312.031 226.969C312.031 229.732 314.287 231.99 317.046 231.99C319.805 231.99 322.061 229.732 322.061 226.969C322.061 224.207 319.805 221.949 317.046 221.949Z" fill="#1C222F"/>
<path d="M330.352 221.296C329.781 221.296 329.238 220.929 329.061 220.344C327.308 214.765 321.341 211.649 315.782 213.405C315.076 213.636 314.301 213.228 314.083 212.52C313.852 211.799 314.26 211.037 314.967 210.819C321.966 208.615 329.455 212.52 331.657 219.541C331.888 220.262 331.48 221.024 330.773 221.242C330.638 221.283 330.502 221.31 330.366 221.31L330.352 221.296Z" fill="#1C222F"/>
<path d="M183.635 221.296C183.499 221.296 183.363 221.269 183.227 221.228C182.507 220.997 182.112 220.235 182.343 219.527C184.545 212.52 192.034 208.601 199.033 210.806C199.754 211.037 200.148 211.799 199.917 212.506C199.686 213.227 198.925 213.622 198.218 213.391C192.646 211.636 186.679 214.751 184.939 220.33C184.763 220.915 184.219 221.282 183.648 221.282L183.635 221.296Z" fill="#1C222F"/>
<path d="M272.997 261.434C272.644 261.434 272.304 261.298 272.032 261.04C263.741 252.74 250.259 252.74 241.968 261.04C241.438 261.57 240.582 261.57 240.052 261.04C239.522 260.509 239.522 259.652 240.052 259.121C249.403 249.76 264.611 249.76 273.962 259.121C274.492 259.652 274.492 260.509 273.962 261.04C273.69 261.312 273.35 261.434 272.997 261.434Z" fill="#1C222F"/>
<path d="M419.443 153.565L381.143 125.699C380.789 125.441 380.341 125.373 379.933 125.495L337.229 138.911H176.771L134.067 125.495C133.66 125.373 133.211 125.441 132.858 125.699L94.5575 153.565C94.1498 153.85 93.9459 154.34 94.0139 154.844C94.0818 155.333 94.408 155.755 94.8701 155.932L141.991 174.382V281.64C141.991 282.388 142.603 283 143.35 283H370.65C371.398 283 372.01 282.388 372.01 281.64V174.382L419.13 155.932C419.593 155.755 419.919 155.333 419.987 154.844C420.055 154.354 419.837 153.864 419.443 153.565ZM338.792 143.564L367.361 172.096H338.792V143.564ZM177.926 141.646H336.074V172.096H177.926V141.646ZM143.024 171.865L98.1728 154.299L133.918 128.298L174.026 140.897L154.726 160.164L143.024 171.851V171.865ZM175.208 143.564V172.096H146.639L175.208 143.564ZM369.291 280.293H144.709V174.818H369.291V280.293ZM370.977 171.865L339.975 140.911L380.083 128.312L415.828 154.313L370.977 171.879V171.865ZM180.291 73.1249C183.091 73.1249 186.706 71.3289 189.941 68.077C192.088 65.9136 193.692 63.4509 194.453 61.1786C194.793 61.3147 195.146 61.4508 195.486 61.5324C196.207 61.7229 196.9 61.8181 197.552 61.8181C197.579 61.8181 197.593 61.8181 197.62 61.8181C197.62 61.8726 197.593 61.927 197.593 61.9814C197.484 63.342 197.919 64.5938 198.83 65.4918C199.645 66.3082 200.732 66.7436 201.928 66.7436C202.064 66.7436 202.2 66.7436 202.336 66.73C203.614 66.6211 204.837 66.0361 205.802 65.0836C206.767 64.1312 207.338 62.893 207.447 61.614C207.555 60.2534 207.12 59.0017 206.21 58.1036C205.299 57.2056 204.062 56.7566 202.703 56.8655C202.649 56.8655 202.581 56.8927 202.526 56.8927C202.526 55.8994 202.336 54.8109 201.915 53.7088C204.171 52.9333 206.645 51.3278 208.778 49.1916C210.899 47.069 212.502 44.6335 213.277 42.3613C214.174 39.7625 213.916 37.5719 212.57 36.2249C209.961 33.6125 204.402 35.2589 199.632 40.0346C197.715 41.9531 196.22 44.1437 195.377 46.2254C194.44 45.6812 193.475 45.2594 192.51 45.0009C192.156 44.9056 191.83 44.8512 191.49 44.7968L189.588 39.1774C189.343 38.4699 188.568 38.0889 187.862 38.3202C187.155 38.5652 186.774 39.3407 187.005 40.0482L188.677 44.9737C187.97 45.205 187.345 45.5723 186.829 46.0894C186.312 46.6064 185.945 47.2323 185.714 47.9534L180.794 46.2935C180.087 46.0486 179.313 46.4295 179.068 47.1507C178.823 47.8582 179.204 48.6337 179.924 48.8787L185.537 50.7835C185.592 51.1101 185.646 51.4502 185.741 51.7904C186 52.7428 186.421 53.7088 186.964 54.6477C184.899 55.4913 182.724 56.9743 180.794 58.92C178.674 61.0426 177.07 63.4781 176.295 65.7503C175.398 68.3491 175.657 70.5397 177.002 71.8867C177.831 72.7167 178.973 73.1249 180.291 73.1249ZM202.921 59.5867C202.921 59.5867 203.043 59.5867 203.097 59.5867C203.573 59.5867 203.994 59.75 204.28 60.0357C204.62 60.3759 204.769 60.8521 204.728 61.41C204.674 62.0494 204.375 62.6753 203.872 63.1651C203.369 63.6686 202.744 63.9679 202.119 64.0223C201.575 64.0768 201.086 63.9135 200.746 63.5733C200.406 63.2468 200.257 62.757 200.298 62.1991C200.352 61.5596 200.651 60.9337 201.154 60.4439C201.657 59.9405 202.282 59.6411 202.907 59.5867H202.921ZM201.548 41.9803C205.544 37.9801 209.54 37.0549 210.64 38.1706C211.198 38.7284 211.225 39.9802 210.695 41.4905C210.056 43.3545 208.643 45.4635 206.835 47.2867C204.851 49.2868 202.594 50.7291 200.651 51.2869C200.08 50.4025 199.387 49.5317 198.558 48.7018C198.272 48.416 197.96 48.1575 197.647 47.8854C198.272 45.9805 199.659 43.858 201.534 41.9667L201.548 41.9803ZM188.759 48.0487C189.139 47.6677 189.737 47.4636 190.457 47.4636C190.865 47.4636 191.327 47.5316 191.817 47.6541C193.42 48.0759 195.174 49.1644 196.641 50.6202C199.727 53.7088 200.488 57.2601 199.237 58.5118C198.639 59.1105 197.525 59.2602 196.179 58.8928C194.576 58.471 192.822 57.3825 191.354 55.9267C189.887 54.4572 188.799 52.702 188.378 51.0965C188.025 49.7494 188.161 48.6337 188.759 48.0351V48.0487ZM178.864 66.6483C179.503 64.7843 180.916 62.6753 182.724 60.8521C184.586 58.988 186.733 57.573 188.623 56.9471C188.894 57.2601 189.139 57.573 189.438 57.8587C190.24 58.6615 191.123 59.3554 192.02 59.9269C191.463 61.8726 190.009 64.172 188.038 66.1449C184.042 70.1451 180.047 71.0567 178.932 69.9546C178.375 69.3968 178.348 68.145 178.878 66.6347L178.864 66.6483Z" fill="#1C222F"/>
</g>
<path d="M169.473 342.727V358H166.706V342.727H169.473Z" fill="#1C222F"/>
<path d="M185.36 346.545V348.633H178.589V346.545H185.36ZM180.282 358V345.464C180.282 344.693 180.441 344.052 180.759 343.54C181.082 343.028 181.515 342.645 182.057 342.392C182.599 342.138 183.2 342.011 183.861 342.011C184.329 342.011 184.744 342.049 185.107 342.123C185.47 342.198 185.738 342.265 185.912 342.324L185.375 344.413C185.261 344.378 185.117 344.343 184.943 344.308C184.769 344.268 184.575 344.248 184.361 344.248C183.859 344.248 183.503 344.37 183.295 344.614C183.091 344.852 182.989 345.196 182.989 345.643V358H180.282Z" fill="#1C222F"/>
<path d="M193.115 358.224C191.966 358.224 190.975 357.985 190.139 357.508C189.309 357.025 188.67 356.344 188.223 355.464C187.775 354.579 187.552 353.538 187.552 352.34C187.552 351.161 187.775 350.127 188.223 349.237C188.675 348.343 189.307 347.647 190.117 347.149C190.927 346.647 191.879 346.396 192.973 346.396C193.679 346.396 194.345 346.511 194.972 346.739C195.603 346.963 196.16 347.311 196.642 347.783C197.129 348.256 197.512 348.857 197.791 349.588C198.069 350.314 198.208 351.179 198.208 352.183V353.011H188.819V351.191H195.62C195.616 350.674 195.504 350.214 195.285 349.812C195.066 349.404 194.76 349.083 194.368 348.85C193.98 348.616 193.527 348.499 193.01 348.499C192.459 348.499 191.974 348.633 191.556 348.902C191.139 349.165 190.813 349.513 190.579 349.946C190.351 350.373 190.234 350.843 190.229 351.355V352.944C190.229 353.61 190.351 354.182 190.594 354.659C190.838 355.131 191.178 355.494 191.616 355.748C192.053 355.996 192.565 356.121 193.152 356.121C193.545 356.121 193.9 356.066 194.218 355.957C194.537 355.842 194.813 355.676 195.046 355.457C195.28 355.238 195.456 354.967 195.576 354.644L198.096 354.927C197.937 355.594 197.634 356.175 197.187 356.672C196.744 357.165 196.177 357.547 195.486 357.821C194.795 358.089 194.005 358.224 193.115 358.224Z" fill="#1C222F"/>
<path d="M206.563 358.224C205.415 358.224 204.423 357.985 203.588 357.508C202.757 357.025 202.118 356.344 201.671 355.464C201.224 354.579 201 353.538 201 352.34C201 351.161 201.224 350.127 201.671 349.237C202.123 348.343 202.755 347.647 203.565 347.149C204.376 346.647 205.328 346.396 206.421 346.396C207.127 346.396 207.794 346.511 208.42 346.739C209.051 346.963 209.608 347.311 210.09 347.783C210.578 348.256 210.96 348.857 211.239 349.588C211.517 350.314 211.656 351.179 211.656 352.183V353.011H202.268V351.191H209.069C209.064 350.674 208.952 350.214 208.733 349.812C208.514 349.404 208.209 349.083 207.816 348.85C207.428 348.616 206.976 348.499 206.459 348.499C205.907 348.499 205.422 348.633 205.004 348.902C204.587 349.165 204.261 349.513 204.028 349.946C203.799 350.373 203.682 350.843 203.677 351.355V352.944C203.677 353.61 203.799 354.182 204.042 354.659C204.286 355.131 204.627 355.494 205.064 355.748C205.502 355.996 206.014 356.121 206.6 356.121C206.993 356.121 207.349 356.066 207.667 355.957C207.985 355.842 208.261 355.676 208.494 355.457C208.728 355.238 208.905 354.967 209.024 354.644L211.545 354.927C211.385 355.594 211.082 356.175 210.635 356.672C210.192 357.165 209.626 357.547 208.934 357.821C208.243 358.089 207.453 358.224 206.563 358.224Z" fill="#1C222F"/>
<path d="M217.64 342.727V358H214.94V342.727H217.64Z" fill="#1C222F"/>
<path d="M236.678 349.573L234.217 349.841C234.148 349.593 234.026 349.359 233.852 349.14C233.683 348.922 233.454 348.745 233.166 348.611C232.877 348.477 232.524 348.41 232.107 348.41C231.545 348.41 231.073 348.531 230.69 348.775C230.312 349.019 230.126 349.334 230.131 349.722C230.126 350.055 230.247 350.326 230.496 350.535C230.749 350.744 231.167 350.915 231.749 351.05L233.703 351.467C234.786 351.701 235.592 352.071 236.119 352.578C236.651 353.085 236.919 353.749 236.924 354.569C236.919 355.29 236.708 355.927 236.29 356.479C235.878 357.025 235.303 357.453 234.568 357.761C233.832 358.069 232.987 358.224 232.032 358.224C230.63 358.224 229.502 357.93 228.646 357.344C227.791 356.752 227.282 355.929 227.118 354.875L229.75 354.622C229.869 355.139 230.123 355.529 230.511 355.792C230.899 356.056 231.403 356.188 232.025 356.188C232.666 356.188 233.181 356.056 233.568 355.792C233.961 355.529 234.157 355.203 234.157 354.816C234.157 354.487 234.031 354.216 233.777 354.003C233.529 353.789 233.141 353.625 232.614 353.511L230.66 353.1C229.561 352.872 228.748 352.486 228.221 351.944C227.694 351.398 227.433 350.707 227.438 349.871C227.433 349.165 227.625 348.554 228.013 348.037C228.405 347.515 228.95 347.112 229.646 346.829C230.347 346.54 231.155 346.396 232.069 346.396C233.412 346.396 234.468 346.682 235.239 347.254C236.014 347.826 236.494 348.599 236.678 349.573Z" fill="#1C222F"/>
<path d="M245.147 358.224C244.028 358.224 243.059 357.977 242.238 357.485C241.418 356.993 240.782 356.305 240.329 355.42C239.882 354.535 239.658 353.501 239.658 352.317C239.658 351.134 239.882 350.098 240.329 349.208C240.782 348.318 241.418 347.627 242.238 347.134C243.059 346.642 244.028 346.396 245.147 346.396C246.265 346.396 247.235 346.642 248.055 347.134C248.875 347.627 249.509 348.318 249.957 349.208C250.409 350.098 250.635 351.134 250.635 352.317C250.635 353.501 250.409 354.535 249.957 355.42C249.509 356.305 248.875 356.993 248.055 357.485C247.235 357.977 246.265 358.224 245.147 358.224ZM245.162 356.061C245.768 356.061 246.275 355.894 246.683 355.561C247.091 355.223 247.394 354.771 247.593 354.204C247.797 353.637 247.898 353.006 247.898 352.31C247.898 351.609 247.797 350.975 247.593 350.408C247.394 349.837 247.091 349.382 246.683 349.044C246.275 348.705 245.768 348.536 245.162 348.536C244.54 348.536 244.023 348.705 243.61 349.044C243.203 349.382 242.897 349.837 242.693 350.408C242.494 350.975 242.395 351.609 242.395 352.31C242.395 353.006 242.494 353.637 242.693 354.204C242.897 354.771 243.203 355.223 243.61 355.561C244.023 355.894 244.54 356.061 245.162 356.061Z" fill="#1C222F"/>
<path d="M265.207 358.224C264.058 358.224 263.066 357.985 262.231 357.508C261.401 357.025 260.762 356.344 260.315 355.464C259.867 354.579 259.643 353.538 259.643 352.34C259.643 351.161 259.867 350.127 260.315 349.237C260.767 348.343 261.398 347.647 262.209 347.149C263.019 346.647 263.971 346.396 265.065 346.396C265.771 346.396 266.437 346.511 267.063 346.739C267.695 346.963 268.252 347.311 268.734 347.783C269.221 348.256 269.604 348.857 269.882 349.588C270.161 350.314 270.3 351.179 270.3 352.183V353.011H260.911V351.191H267.712C267.707 350.674 267.595 350.214 267.377 349.812C267.158 349.404 266.852 349.083 266.459 348.85C266.072 348.616 265.619 348.499 265.102 348.499C264.55 348.499 264.066 348.633 263.648 348.902C263.23 349.165 262.905 349.513 262.671 349.946C262.442 350.373 262.326 350.843 262.321 351.355V352.944C262.321 353.61 262.442 354.182 262.686 354.659C262.93 355.131 263.27 355.494 263.708 355.748C264.145 355.996 264.657 356.121 265.244 356.121C265.637 356.121 265.992 356.066 266.31 355.957C266.628 355.842 266.904 355.676 267.138 355.457C267.372 355.238 267.548 354.967 267.668 354.644L270.188 354.927C270.029 355.594 269.726 356.175 269.278 356.672C268.836 357.165 268.269 357.547 267.578 357.821C266.887 358.089 266.097 358.224 265.207 358.224Z" fill="#1C222F"/>
<path d="M273.584 358V346.545H276.164V348.492H276.298C276.537 347.835 276.932 347.323 277.484 346.955C278.036 346.583 278.695 346.396 279.46 346.396C280.236 346.396 280.89 346.585 281.422 346.963C281.958 347.336 282.336 347.845 282.555 348.492H282.674C282.928 347.855 283.355 347.348 283.957 346.97C284.564 346.588 285.282 346.396 286.112 346.396C287.166 346.396 288.026 346.729 288.692 347.395C289.359 348.062 289.692 349.034 289.692 350.311V358H286.985V350.729C286.985 350.018 286.796 349.498 286.418 349.17C286.04 348.837 285.578 348.671 285.031 348.671C284.38 348.671 283.87 348.875 283.502 349.282C283.139 349.685 282.958 350.209 282.958 350.856V358H280.31V350.617C280.31 350.025 280.131 349.553 279.773 349.2C279.42 348.847 278.958 348.671 278.386 348.671C277.999 348.671 277.646 348.77 277.327 348.969C277.009 349.163 276.756 349.439 276.567 349.797C276.378 350.15 276.283 350.562 276.283 351.035V358H273.584Z" fill="#1C222F"/>
<path d="M293.43 362.295V346.545H296.085V348.439H296.242C296.381 348.161 296.578 347.865 296.831 347.552C297.085 347.234 297.428 346.963 297.86 346.739C298.293 346.511 298.845 346.396 299.516 346.396C300.401 346.396 301.199 346.622 301.91 347.075C302.625 347.522 303.192 348.186 303.61 349.066C304.032 349.941 304.244 351.015 304.244 352.288C304.244 353.545 304.037 354.614 303.625 355.494C303.212 356.374 302.65 357.045 301.939 357.508C301.228 357.97 300.423 358.201 299.523 358.201C298.867 358.201 298.323 358.092 297.89 357.873C297.457 357.654 297.109 357.391 296.846 357.083C296.587 356.769 296.386 356.474 296.242 356.195H296.13V362.295H293.43ZM296.078 352.273C296.078 353.013 296.182 353.662 296.391 354.219C296.605 354.776 296.911 355.211 297.308 355.524C297.711 355.832 298.198 355.986 298.77 355.986C299.367 355.986 299.866 355.827 300.269 355.509C300.672 355.186 300.975 354.746 301.179 354.189C301.388 353.627 301.492 352.989 301.492 352.273C301.492 351.562 301.39 350.93 301.186 350.378C300.982 349.827 300.679 349.394 300.276 349.081C299.874 348.768 299.372 348.611 298.77 348.611C298.193 348.611 297.704 348.763 297.301 349.066C296.898 349.369 296.592 349.794 296.384 350.341C296.18 350.888 296.078 351.532 296.078 352.273Z" fill="#1C222F"/>
<path d="M313.275 346.545V348.633H306.69V346.545H313.275ZM308.316 343.801H311.016V354.555C311.016 354.917 311.07 355.196 311.18 355.39C311.294 355.579 311.443 355.708 311.627 355.778C311.811 355.847 312.015 355.882 312.239 355.882C312.408 355.882 312.562 355.87 312.701 355.845C312.845 355.82 312.955 355.797 313.029 355.778L313.484 357.888C313.34 357.938 313.134 357.992 312.865 358.052C312.602 358.112 312.279 358.147 311.896 358.156C311.22 358.176 310.611 358.074 310.069 357.851C309.527 357.622 309.097 357.269 308.779 356.792C308.465 356.314 308.311 355.718 308.316 355.002V343.801Z" fill="#1C222F"/>
<path d="M318.211 362.295C317.843 362.295 317.502 362.265 317.189 362.206C316.881 362.151 316.635 362.087 316.451 362.012L317.077 359.909C317.47 360.023 317.821 360.078 318.129 360.073C318.437 360.068 318.708 359.971 318.942 359.782C319.18 359.598 319.382 359.29 319.546 358.857L319.777 358.239L315.623 346.545H318.487L321.127 355.196H321.246L323.893 346.545H326.765L322.178 359.387C321.964 359.993 321.681 360.513 321.328 360.946C320.975 361.383 320.543 361.716 320.031 361.945C319.523 362.178 318.917 362.295 318.211 362.295Z" fill="#1C222F"/>
<path d="M330.578 358.164C330.125 358.164 329.738 358.005 329.415 357.687C329.091 357.368 328.932 356.981 328.937 356.523C328.932 356.076 329.091 355.693 329.415 355.375C329.738 355.057 330.125 354.898 330.578 354.898C331.015 354.898 331.396 355.057 331.719 355.375C332.047 355.693 332.214 356.076 332.218 356.523C332.214 356.827 332.134 357.102 331.98 357.351C331.831 357.6 331.632 357.799 331.383 357.948C331.14 358.092 330.871 358.164 330.578 358.164Z" fill="#1C222F"/>
<path d="M337.669 358.164C337.216 358.164 336.828 358.005 336.505 357.687C336.182 357.368 336.023 356.981 336.028 356.523C336.023 356.076 336.182 355.693 336.505 355.375C336.828 355.057 337.216 354.898 337.669 354.898C338.106 354.898 338.487 355.057 338.81 355.375C339.138 355.693 339.304 356.076 339.309 356.523C339.304 356.827 339.225 357.102 339.071 357.351C338.922 357.6 338.723 357.799 338.474 357.948C338.23 358.092 337.962 358.164 337.669 358.164Z" fill="#1C222F"/>
<path d="M344.759 358.164C344.307 358.164 343.919 358.005 343.596 357.687C343.273 357.368 343.114 356.981 343.119 356.523C343.114 356.076 343.273 355.693 343.596 355.375C343.919 355.057 344.307 354.898 344.759 354.898C345.197 354.898 345.577 355.057 345.9 355.375C346.229 355.693 346.395 356.076 346.4 356.523C346.395 356.827 346.316 357.102 346.161 357.351C346.012 357.6 345.813 357.799 345.565 357.948C345.321 358.092 345.053 358.164 344.759 358.164Z" fill="#1C222F"/>
<defs>
<radialGradient id="paint0_radial_6234_47348" cx="0" cy="0" r="1" gradientUnits="userSpaceOnUse" gradientTransform="translate(257 220) rotate(90) scale(220 257)">
<stop offset="0.421875"/>
<stop offset="0.973958" stop-opacity="0"/>
</radialGradient>
<clipPath id="clip0_6234_47348">
<rect width="326" height="265" fill="white" transform="translate(94 35)"/>
</clipPath>
</defs>
</svg>
